<svg xmlns="http://www.w3.org/2000/svg" xmlns:xlink="http://www.w3.org/1999/xlink" viewBox="0 0 59.25 59.35"><defs><style>.cls-1{fill:none;}.cls-2{fill:#08a44e;}.cls-3{fill:#fff;}.cls-4{fill:#1d1d1b;}.cls-5{clip-path:url(#clip-path);}.cls-6{fill:#343434;}.cls-7{fill:url(#linear-gradient);}.cls-8{fill:url(#linear-gradient-2);}.cls-9{fill:url(#linear-gradient-3);}.cls-10{fill:url(#linear-gradient-4);}.cls-11{fill:url(#linear-gradient-5);}.cls-12{fill:url(#linear-gradient-6);}.cls-13{fill:url(#linear-gradient-7);}.cls-14{fill:url(#linear-gradient-8);}.cls-15{fill:url(#linear-gradient-9);}.cls-16{fill:url(#linear-gradient-10);}.cls-17{fill:url(#linear-gradient-11);}.cls-18{fill:url(#linear-gradient-12);}.cls-19{fill:url(#linear-gradient-13);}.cls-20{fill:url(#linear-gradient-14);}.cls-21{fill:url(#linear-gradient-15);}.cls-22{fill:#010101;}</style><clipPath id="clip-path"><circle className="cls-1" cx="29.41" cy="29.84" r="11.15"/></clipPath><linearGradient id="linear-gradient" x1="33.32" y1="24.56" x2="40.53" y2="24.48" gradientUnits="userSpaceOnUse"><stop offset="0" stop-color="#e63612"/><stop offset="0.56" stop-color="#fab332"/><stop offset="1" stop-color="#50ab33"/></linearGradient><linearGradient id="linear-gradient-2" x1="33.28" y1="21.62" x2="40.49" y2="21.54" xlink:href="#linear-gradient"/><linearGradient id="linear-gradient-3" x1="33.26" y1="18.17" x2="40.47" y2="18.09" xlink:href="#linear-gradient"/><linearGradient id="linear-gradient-4" x1="33.23" y1="16.68" x2="40.45" y2="16.6" xlink:href="#linear-gradient"/><linearGradient id="linear-gradient-5" x1="33.22" y1="15.25" x2="40.44" y2="15.17" xlink:href="#linear-gradient"/><linearGradient id="linear-gradient-6" x1="33.21" y1="14.52" x2="40.43" y2="14.44" xlink:href="#linear-gradient"/><linearGradient id="linear-gradient-7" x1="33.2" y1="14.15" x2="40.43" y2="14.07" xlink:href="#linear-gradient"/><linearGradient id="linear-gradient-8" x1="33.19" y1="14.2" x2="40.39" y2="14.12" xlink:href="#linear-gradient"/><linearGradient id="linear-gradient-9" x1="33.2" y1="14.87" x2="40.4" y2="14.79" xlink:href="#linear-gradient"/><linearGradient id="linear-gradient-10" x1="33.22" y1="15.59" x2="40.42" y2="15.51" xlink:href="#linear-gradient"/><linearGradient id="linear-gradient-11" x1="33.23" y1="16.83" x2="40.44" y2="16.75" xlink:href="#linear-gradient"/><linearGradient id="linear-gradient-12" x1="33.25" y1="18.3" x2="40.46" y2="18.22" xlink:href="#linear-gradient"/><linearGradient id="linear-gradient-13" x1="33.27" y1="20.47" x2="40.48" y2="20.39" xlink:href="#linear-gradient"/><linearGradient id="linear-gradient-14" x1="33.3" y1="23.17" x2="40.51" y2="23.09" xlink:href="#linear-gradient"/><linearGradient id="linear-gradient-15" x1="33.33" y1="25.48" x2="40.54" y2="25.4" xlink:href="#linear-gradient"/></defs><title>Asset 1</title><g id="Layer_2" data-name="Layer 2"><g id="Layer_1-2" data-name="Layer 1"><path className="cls-2" d="M32.07.12c0,1.18.07,2.36.07,3.54,0,.36.06.53.47.57a21.59,21.59,0,0,1,4,.8c.29.09.4,0,.52-.27.45-1,.94-2,1.37-2.95.15-.36.31-.39.64-.27A34.77,34.77,0,0,1,43.05,3.2c.26.13.32.23.21.52-.43,1-.82,2-1.25,3.06-.11.27-.13.43.18.59a21.12,21.12,0,0,1,3.24,2.18c.28.23.42.16.64-.07.75-.76,1.53-1.49,2.28-2.27.25-.26.4-.23.64,0a32.5,32.5,0,0,1,3.1,3.11c.22.25.24.4,0,.64-.79.75-1.55,1.54-2.34,2.29-.2.2-.24.32,0,.56a20.74,20.74,0,0,1,2.2,3.29c.16.29.3.25.54.15,1-.44,2-.85,3-1.29.3-.14.45-.14.61.19a36.48,36.48,0,0,1,1.77,4.24c.11.3,0,.43-.26.55-1,.41-2,.87-3,1.28-.33.13-.37.27-.28.59a19.08,19.08,0,0,1,.7,3.52c0,.35.18.47.55.46,1.07,0,2.14,0,3.21-.05.27,0,.41,0,.44.36.14,1.48.07,3,.07,4.45,0,.44-.2.52-.59.51-1,0-2.11,0-3.16,0-.28,0-.4.05-.44.37a20,20,0,0,1-.71,3.84c-.12.39,0,.52.35.65,1,.35,2,.76,3,1.12.29.1.34.24.26.51a35.88,35.88,0,0,1-1.55,3.92c-.15.32-.29.31-.56.2-1-.38-2-.74-3.06-1.13-.29-.11-.43-.1-.58.2A21.65,21.65,0,0,1,50,45.18c-.19.26-.18.39.05.61.79.76,1.55,1.54,2.33,2.3.22.21.28.33,0,.6a36.79,36.79,0,0,1-2.94,3.05c-.24.22-.37.21-.59,0-.74-.79-1.5-1.54-2.24-2.32-.21-.23-.35-.31-.64-.06a21.39,21.39,0,0,1-3.31,2.36c-.26.16-.33.28-.2.59.42,1,.79,2,1.2,3,.12.3.12.46-.21.63a39.79,39.79,0,0,1-3.9,1.72c-.41.15-.51,0-.64-.32-.37-1-.78-2-1.14-3-.11-.31-.24-.32-.5-.23a22.26,22.26,0,0,1-4.28,1c-.31,0-.41.14-.41.46,0,1.1,0,2.19,0,3.28,0,.3-.07.42-.4.45-1.4.14-2.79.06-4.18.09-.36,0-.46-.11-.45-.46,0-1.09,0-2.18,0-3.28,0-.29-.09-.4-.38-.42a22.89,22.89,0,0,1-4.42-.79c-.33-.1-.38.07-.47.3-.39,1-.81,2-1.18,3-.11.29-.22.38-.54.27a37.47,37.47,0,0,1-4.07-1.62c-.32-.15-.3-.3-.2-.56.41-1,.78-2,1.2-3,.12-.28.13-.42-.17-.58a21.1,21.1,0,0,1-3.54-2.31c-.26-.21-.4-.16-.6.06-.75.79-1.53,1.56-2.27,2.36-.23.24-.37.23-.6,0A36.71,36.71,0,0,1,7,49.07c-.21-.24-.15-.37,0-.56.78-.79,1.54-1.59,2.33-2.37.21-.2.24-.32.05-.56a20.77,20.77,0,0,1-2.24-3.32c-.16-.29-.31-.27-.54-.17-1,.43-2,.84-3,1.28-.31.14-.45.1-.61-.22a33.16,33.16,0,0,1-1.71-4.08c-.14-.4,0-.53.32-.66,1-.38,1.9-.8,2.86-1.17.36-.14.43-.29.32-.67a22,22,0,0,1-.76-3.78c0-.34-.16-.4-.46-.38L0,32.52V27.15A.86.86,0,0,1,.66,27c.9,0,1.79,0,2.68,0,.39,0,.58-.09.63-.52A18.58,18.58,0,0,1,4.65,23c.12-.43,0-.63-.41-.74-.9-.25-1.79-.51-2.68-.79-.58-.18-.63-.28-.46-.84a28,28,0,0,1,1.57-4c.3-.6.39-.64,1-.39.85.34,1.7.65,2.53,1,.39.19.65.15.87-.26A23.57,23.57,0,0,1,9.24,13.8c.23-.3.15-.51-.09-.74-.66-.66-1.32-1.31-2-2-.46-.47-.45-.61,0-1.12A23.19,23.19,0,0,1,9.73,7.37a.63.63,0,0,1,.94,0c.75.61,1.38,1.35,2.12,2a.59.59,0,0,0,.91,0,23.82,23.82,0,0,1,3-2c.49-.27.51-.35.29-.9-.34-.86-.71-1.71-1-2.58-.19-.51-.14-.69.33-.91a30.92,30.92,0,0,1,3.62-1.49c.55-.18.65-.13.9.42.39.88.77,1.76,1.16,2.65a.5.5,0,0,0,.71.34,24.79,24.79,0,0,1,3.72-.76c.39,0,.53-.21.51-.59-.08-1,.13-2.06.11-3.1a.43.43,0,0,1,.11-.3c.17-.1.39,0,.56-.09h3.76C31.63.15,31.89,0,32.07.12Z"/><circle className="cls-3" cx="29.62" cy="29.68" r="19.3"/><path className="cls-4" d="M21.07,48.94a1.5,1.5,0,0,0-.81-.72,2.31,2.31,0,0,0-.73-.26,1.17,1.17,0,0,0-.62.11,1.19,1.19,0,0,0-.45.41,1.05,1.05,0,0,0-.16.57,1.08,1.08,0,0,0,.2.52,3.85,3.85,0,0,0,.62.64,2.43,2.43,0,0,1,.56.52.28.28,0,0,1,0,.25.28.28,0,0,1-.21.15,1,1,0,0,1-.56-.12.83.83,0,0,1-.4-.35.56.56,0,0,1,0-.46l-.72-.36a1,1,0,0,0,0,.87,1.91,1.91,0,0,0,.89.83,2.52,2.52,0,0,0,.8.23,1,1,0,0,0,.61-.12.76.76,0,0,0,.36-.39.93.93,0,0,0,0-.81,2.28,2.28,0,0,0-.64-.69,3.64,3.64,0,0,1-.48-.42.7.7,0,0,1-.17-.27.35.35,0,0,1,0-.22.42.42,0,0,1,.32-.22.84.84,0,0,1,.54.13.76.76,0,0,1,.41.37.81.81,0,0,1,0,.58l.69.25A1.41,1.41,0,0,0,21.07,48.94Z"/><path className="cls-4" d="M18.11,47l-.48.72-.68.12c0-.51.08-1.05.14-1.56l-.59-.45c-.07.68-.11,1.38-.13,2.1-.52.06-1.06.12-1.62.16l.7.53c.3,0,.6-.07.89-.12l.89-.18-.7,1.06.54.35,1.51-2.42Z"/><path className="cls-4" d="M14.59,47.33l1.23-1.44.28.25.3-.37-1-.86-.33.35.28.24-1.26,1.41-.31-.27-.33.36,1.11,1,.31-.38Z"/><path className="cls-4" d="M13.76,43.16l-.36.31.47.56.51.52L12.7,46.19l.46.46,2-2C14.66,44.14,14.18,43.68,13.76,43.16Z"/><path className="cls-4" d="M12.29,41.24l-.4.27c.28.4.58.78.86,1.18l-1.86,1.44a6.4,6.4,0,0,0,.41.5l2.19-1.79a9.24,9.24,0,0,1-.61-.79Z"/><path className="cls-4" d="M11.8,40.83a1.2,1.2,0,0,0-.22-.83,1.72,1.72,0,0,0-.38-.5.81.81,0,0,0-.46-.19.87.87,0,0,0-.48.08.84.84,0,0,0-.35.32.85.85,0,0,0-.1.43,3.74,3.74,0,0,0,.13.69,2.11,2.11,0,0,1,.14.58.23.23,0,0,1-.1.17.22.22,0,0,1-.21,0,.88.88,0,0,1-.32-.32.61.61,0,0,1-.1-.4.46.46,0,0,1,.19-.31L9.22,40a.81.81,0,0,0-.41.57A1.43,1.43,0,0,0,9,41.5a1.61,1.61,0,0,0,.42.49.8.8,0,0,0,.45.19.66.66,0,0,0,.42-.11.73.73,0,0,0,.33-.55,1.58,1.58,0,0,0-.12-.73,3.3,3.3,0,0,1-.13-.48.49.49,0,0,1,0-.25.24.24,0,0,1,.12-.14.34.34,0,0,1,.31,0,.56.56,0,0,1,.3.32.64.64,0,0,1,.11.42.69.69,0,0,1-.24.4l.36.46A1.09,1.09,0,0,0,11.8,40.83Z"/><path className="cls-4" d="M8.68,34.39a3.3,3.3,0,0,1-.15.35,2,2,0,0,0-.29-.08,2.63,2.63,0,0,0-.51-.06c0,.22,0,.44,0,.67a1.84,1.84,0,0,1,.44,0L7.7,36a1.9,1.9,0,0,0-.57-.43.75.75,0,0,0-.44,0,.7.7,0,0,0-.48.44,1.52,1.52,0,0,0,.49,1.61.67.67,0,0,0,.62.1.77.77,0,0,0,.31-.22,2.05,2.05,0,0,0,.29-.42,1.87,1.87,0,0,0,.67.46A1,1,0,0,0,9.77,37a1.25,1.25,0,0,0,0-1.06,2,2,0,0,0-.24-.53,1.59,1.59,0,0,0-.4-.37,2.2,2.2,0,0,0,.24-.66l-.59-.29Zm.14,1.2a1.28,1.28,0,0,1,.29.26,1,1,0,0,1,.15.29.49.49,0,0,1,0,.41.44.44,0,0,1-.29.26.55.55,0,0,1-.36,0,.89.89,0,0,1-.4-.27C8.39,36.22,8.62,35.9,8.82,35.59ZM7.28,36.73a.55.55,0,0,1-.23.26.27.27,0,0,1-.22-.05.43.43,0,0,1-.17-.25.49.49,0,0,1,0-.32.29.29,0,0,1,.19-.17.43.43,0,0,1,.36.13l.19.16C7.36,36.57,7.32,36.65,7.28,36.73Z"/><path className="cls-4" d="M8.84,31.5l-1.34.12c0-.17,0-.33,0-.5a4.35,4.35,0,0,0-.08-.78,1.1,1.1,0,0,0-.18-.4,1,1,0,0,0-.36-.32,1,1,0,0,0-.55-.13,1,1,0,0,0-.7.23,1.09,1.09,0,0,0-.33.59,5.81,5.81,0,0,0,0,1c0,.22,0,.45.06.67l.07.67,3.55-.44Zm-3-.13a3.26,3.26,0,0,1,0-.59A.55.55,0,0,1,6,30.45a.42.42,0,0,1,.32-.14.46.46,0,0,1,.28.08.55.55,0,0,1,.18.24,2.17,2.17,0,0,1,.08.62,3,3,0,0,0,0,.42l-1,.09C5.88,31.63,5.86,31.5,5.85,31.37Z"/><path className="cls-4" d="M8.8,28.46l-1.23-.07v-.12a1.53,1.53,0,0,1,0-.32.73.73,0,0,1,.14-.18,3.55,3.55,0,0,1,.46-.28c.22-.13.46-.25.69-.36L9,26.42l-.62.28a2.74,2.74,0,0,0-.52.29,1.67,1.67,0,0,0-.29.3,1,1,0,0,0-.19-.65.81.81,0,0,0-.52-.28.79.79,0,0,0-.48.08.78.78,0,0,0-.33.34,2.25,2.25,0,0,0-.16.77c0,.47-.07.95-.08,1.42l3,.08C8.79,28.86,8.78,28.66,8.8,28.46Zm-2.45-.14,0-.51c0-.27,0-.43,0-.48a.41.41,0,0,1,.14-.24A.38.38,0,0,1,6.83,27a.4.4,0,0,1,.21.09.44.44,0,0,1,.1.19,2.85,2.85,0,0,1,0,.58l0,.48Z"/><path className="cls-4" d="M8.77,25.78a1.29,1.29,0,0,0,.38-.39,1.82,1.82,0,0,0,.23-.55,1.54,1.54,0,0,0-.13-1.11,1.6,1.6,0,0,0-1-.71,1.41,1.41,0,0,0-1.2.09,1.5,1.5,0,0,0-.69,1,2.06,2.06,0,0,0-.05.73,1.26,1.26,0,0,0,.19.47,1.34,1.34,0,0,0,.34.37A1.8,1.8,0,0,0,7.6,26,1.55,1.55,0,0,0,8.77,25.78ZM7,25a.82.82,0,0,1-.1-.69.8.8,0,0,1,.39-.58,1.08,1.08,0,0,1,.8,0,1.12,1.12,0,0,1,.68.43.84.84,0,0,1,.11.64.76.76,0,0,1-.39.53,1.06,1.06,0,0,1-.79.09A1,1,0,0,1,7,25Z"/><path className="cls-4" d="M10,22.45,8.85,22c.17-.4.31-.81.49-1.2l-.46-.2c-.18.4-.33.82-.5,1.23l-.65-.24c.19-.49.37-1,.6-1.47l-.46-.21c-.16.35-.3.71-.44,1.07s-.27.71-.39,1.08l2.8.93Z"/><path className="cls-4" d="M11.84,18.73l-.43-.26c-.28.49-.57,1-.81,1.47l-.72-.37c.23-.47.5-.91.76-1.37l-.43-.26c-.27.47-.54.93-.78,1.41l-.58-.3c.26-.53.56-1,.86-1.55l-.43-.26-.62,1.08c-.18.37-.38.73-.56,1.11l2.67,1.27c.16-.34.34-.67.51-1S11.64,19.05,11.84,18.73Z"/><path className="cls-4" d="M12.05,18a1.36,1.36,0,0,0,.7-.55,1.45,1.45,0,0,0,.18-.31,1.59,1.59,0,0,0,.12-.27.92.92,0,0,0,0-.52.81.81,0,0,0-.29-.41.76.76,0,0,0-.44-.2.8.8,0,0,0-.45.08,2.89,2.89,0,0,0-.59.43,2,2,0,0,1-.5.37.25.25,0,0,1-.21,0,.23.23,0,0,1-.09-.19.81.81,0,0,1,.18-.43.63.63,0,0,1,.32-.28.46.46,0,0,1,.37,0l.39-.53a.85.85,0,0,0-.72-.15,1.44,1.44,0,0,0-.76.61,1.87,1.87,0,0,0-.3.6.87.87,0,0,0,0,.51.66.66,0,0,0,.28.35.73.73,0,0,0,.66.08,1.92,1.92,0,0,0,.65-.42,4.85,4.85,0,0,1,.39-.33.45.45,0,0,1,.24-.1.23.23,0,0,1,.18.05.39.39,0,0,1,.14.29.74.74,0,0,1-.16.43.65.65,0,0,1-.37.28.7.7,0,0,1-.48-.06l-.28.54A1.13,1.13,0,0,0,12.05,18Z"/><path className="cls-4" d="M13.72,15.83a1.41,1.41,0,0,0,.77-.47,1.65,1.65,0,0,0,.37-.53.93.93,0,0,0,.06-.52.89.89,0,0,0-.23-.44.84.84,0,0,0-.41-.26.91.91,0,0,0-.46,0,2.32,2.32,0,0,0-.64.35,1.81,1.81,0,0,1-.55.29.23.23,0,0,1-.2,0,.21.21,0,0,1-.07-.2.82.82,0,0,1,.23-.41A.73.73,0,0,1,13,13.4a.45.45,0,0,1,.35.1l.45-.48a.83.83,0,0,0-.69-.24,1.46,1.46,0,0,0-.83.51,1.51,1.51,0,0,0-.37.56.83.83,0,0,0,0,.51.78.78,0,0,0,.23.38.76.76,0,0,0,.64.16,2,2,0,0,0,.7-.33l.44-.28a.45.45,0,0,1,.25-.07.25.25,0,0,1,.17.08.39.39,0,0,1,.1.31.7.7,0,0,1-.22.4.66.66,0,0,1-.41.23.72.72,0,0,1-.46-.12l-.35.49A1.22,1.22,0,0,0,13.72,15.83Z"/><path className="cls-4" d="M14.17,12.18l1.29,1.47-.28.26.33.36.51-.44c.17-.15.34-.3.52-.43L16.22,13l-.3.24-1.25-1.5.32-.27-.31-.38a7,7,0,0,0-.59.49c-.19.17-.39.33-.58.51l.34.36Z"/><path className="cls-4" d="M16.86,12.69A1.45,1.45,0,0,0,18,12.41a1.4,1.4,0,0,0,.65-.91,1.53,1.53,0,0,0-.22-1.16,1.42,1.42,0,0,0-.95-.75,1.6,1.6,0,0,0-1.21.29,2,2,0,0,0-.52.52,1.25,1.25,0,0,0-.19.46,1.3,1.3,0,0,0,0,.52,1.53,1.53,0,0,0,.35.68A1.52,1.52,0,0,0,16.86,12.69Zm-.74-1.8a.92.92,0,0,1,.39-.59.84.84,0,0,1,.69-.14,1,1,0,0,1,.61.51,1.13,1.13,0,0,1,.21.78.8.8,0,0,1-.36.54.78.78,0,0,1-.64.13,1.08,1.08,0,0,1-.65-.47A1.06,1.06,0,0,1,16.12,10.89Z"/><path className="cls-4" d="M20,11.12l-.89-1.71,1,.57c.33.2.65.42,1,.63l.54-.24L20.49,7.64c-.2.07-.38.16-.58.25l.81,1.8-1-.63c-.34-.2-.69-.39-1-.58-.2.11-.4.2-.58.31l1.43,2.59C19.69,11.28,19.85,11.21,20,11.12Z"/><path className="cls-4" d="M22.75,6.83c-.23.06-.46.14-.68.22C22,7.59,22,8.12,22,8.65s0,1.07,0,1.6l.59-.23V9.31c.39-.13.77-.27,1.16-.37l.43.58.31-.09.31-.07A31.42,31.42,0,0,0,22.75,6.83Zm-.21,1.94c0-.39,0-.78.07-1.18.25.3.5.62.74.93C23.07,8.59,22.81,8.69,22.54,8.77Z"/><path className="cls-4" d="M27.09,8.93,27,8.44l-.75.1-.74.13-.46-2.39-.66.14.64,2.86c.33-.08.67-.14,1-.2S26.75,9,27.09,8.93Z"/><path className="cls-4" d="M29.69,8.77h1l.33,0a2.08,2.08,0,0,0,.64,0,1.49,1.49,0,0,0,.54-.22A1.73,1.73,0,0,0,32.68,8a2.39,2.39,0,0,0,.22-.74,2.18,2.18,0,0,0,0-.85,1.44,1.44,0,0,0-.3-.62,1.41,1.41,0,0,0-.58-.4,3.66,3.66,0,0,0-.78-.13c-.26,0-.51,0-.77,0l-.76,0Zm1.19-2.94a5.16,5.16,0,0,1,.67.09.78.78,0,0,1,.36.19.81.81,0,0,1,.19.37,1.88,1.88,0,0,1,0,.64,2.07,2.07,0,0,1-.15.64.68.68,0,0,1-.23.32.62.62,0,0,1-.31.13,1.63,1.63,0,0,1-.45,0c-.18,0-.36,0-.54,0l.08-2.36Z"/><path className="cls-4" d="M35.42,9.6l.14-.48C35,9,34.47,8.83,33.91,8.7l.17-.8c.51.13,1,.23,1.54.38l.13-.48c-.52-.16-1-.26-1.57-.39l.13-.65c.58.13,1.17.26,1.74.43l.14-.48-.61-.18L35,6.39l-.62-.14-.62-.11-.51,3,.56.1.55.13.55.13Z"/><path className="cls-4" d="M37.23,10.21c.34-.4.7-.79,1.07-1.18s.75-.76,1.14-1.13l-.66-.3c-.55.58-1.06,1.17-1.56,1.77,0-.79,0-1.56,0-2.36-.24-.07-.47-.16-.71-.22.1,1.06.15,2.15.15,3.2C36.83,10.05,37,10.14,37.23,10.21Z"/><path className="cls-4" d="M40.48,11.82l.26-.43c-.49-.28-1-.57-1.49-.82l.37-.73c.23.12.48.23.7.37l.69.39.26-.43-.7-.4c-.24-.14-.48-.25-.72-.38l.3-.59c.54.26,1.05.57,1.57.86L42,9.23c-.36-.21-.72-.42-1.09-.62s-.75-.4-1.13-.57l-1.27,2.71c.34.16.67.34,1,.51Z"/><path className="cls-4" d="M42.62,13.33l.31-.4c-.2-.15-.39-.32-.6-.47L41.71,12l1.39-2c-.18-.14-.38-.25-.57-.38l-1.61,2.5c.3.18.58.38.86.58S42.34,13.11,42.62,13.33Z"/><path className="cls-4" d="M43.39,13.5a1.49,1.49,0,0,0,.52,1,1.73,1.73,0,0,0,.49.34,1.44,1.44,0,0,0,1.65-.36,1.44,1.44,0,0,0,.53-1.1,1.38,1.38,0,0,0-.14-.59,1.84,1.84,0,0,0-.41-.54,1.63,1.63,0,0,0-.62-.41,1.24,1.24,0,0,0-.51-.08,1.22,1.22,0,0,0-.5.11,1.67,1.67,0,0,0-.6.49A1.59,1.59,0,0,0,43.39,13.5ZM45,12.37a.82.82,0,0,1,.67.27.86.86,0,0,1,.3.64,1,1,0,0,1-.38.71,1.11,1.11,0,0,1-.72.38.8.8,0,0,1-.62-.23.86.86,0,0,1-.27-.61,1.14,1.14,0,0,1,.32-.74A1.08,1.08,0,0,1,45,12.37Z"/><path className="cls-4" d="M45.66,16.3l.87-.72c.09.1.17.21.26.32a2.86,2.86,0,0,0,.44.49.94.94,0,0,0,.31.18.84.84,0,0,0,.39.05,1,1,0,0,0,.81-.67.92.92,0,0,0-.05-.57,4,4,0,0,0-.47-.67c-.22-.3-.47-.56-.71-.84l-2.24,2ZM47.78,15a3.72,3.72,0,0,1,.28.39.54.54,0,0,1,.06.3.33.33,0,0,1-.15.24.41.41,0,0,1-.47,0,1.78,1.78,0,0,1-.36-.37c-.07-.09-.14-.19-.22-.28l.65-.54C47.65,14.79,47.71,14.88,47.78,15Z"/><path className="cls-4" d="M47.26,18.5l2-1.26c-.55.6-1.1,1.19-1.68,1.76l.28.5q1.18-.32,2.37-.57L48.13,20l.26.5,2.69-1.31-.47-.92c-.7.15-1.39.31-2.07.49.49-.5,1-1,1.46-1.55l-.56-.87L47,18Z"/><path className="cls-4" d="M49.45,23.17l.48-.16c-.09-.27-.17-.54-.27-.8l-.32-.8.76-.31c.19.49.39,1,.55,1.49l.48-.16c-.16-.52-.37-1-.57-1.52l.61-.26.33.84c.11.28.2.56.3.84l.48-.15c-.14-.4-.27-.8-.43-1.19l-.23-.59c-.08-.19-.17-.38-.26-.57l-2.72,1.23c.07.17.15.34.23.52l.2.52C49.22,22.45,49.33,22.81,49.45,23.17Z"/><path className="cls-4" d="M49.76,24.19l1.88-.5c-.5.58-1.06,1.15-1.6,1.67,0,.19.07.39.11.59l3-.53L53,24.8l-2,.4c.56-.55,1.12-1.14,1.64-1.76l-.18-.64-2.87.86Z"/><path className="cls-4" d="M50.4,27.84l2.48-.21c0,.32.06.65.06,1l.51,0c0-.45-.06-.9-.09-1.35s-.11-.89-.18-1.34l-.5.08c0,.32.09.65.13,1l-2.47.28C50.37,27.44,50.38,27.64,50.4,27.84Z"/><path className="cls-4" d="M53.34,31.87,51,31.65c0-.15,0-.31,0-.46l-.59-.05c0,.54-.13,1.08-.18,1.62l.59.09.06-.47,2.34.3-.06.52.6.09c.07-.63.15-1.26.2-1.89l-.6,0A4.36,4.36,0,0,1,53.34,31.87Z"/><path className="cls-4" d="M50,34.21l2,.44c-.76.3-1.53.54-2.28.76,0,.19-.1.4-.17.59l2.93.94c.08-.21.13-.42.19-.63l-2-.57c.77-.24,1.57-.51,2.35-.82l.13-.68-3-.59Z"/><path className="cls-4" d="M49.27,36.61l-.19.55a5.15,5.15,0,0,1-.23.54,1.66,1.66,0,0,0-.15.53,1.15,1.15,0,0,0,0,.5,1.44,1.44,0,0,0,.34.54,1.78,1.78,0,0,0,.54.38,2,2,0,0,0,.7.23,1.33,1.33,0,0,0,.6-.07,1.26,1.26,0,0,0,.47-.36,2.78,2.78,0,0,0,.32-.59c.08-.2.18-.4.25-.6l.22-.61Zm2.07,1.8a4.77,4.77,0,0,1-.26.52.71.71,0,0,1-.26.23.57.57,0,0,1-.35.05,1.56,1.56,0,0,1-.52-.16,1.9,1.9,0,0,1-.49-.3.59.59,0,0,1-.2-.28.56.56,0,0,1,0-.29,1.62,1.62,0,0,1,.13-.36c.06-.14.13-.29.18-.43l1.9.74C51.42,38.23,51.37,38.32,51.34,38.41Z"/><path className="cls-4" d="M49.3,40.11a3.64,3.64,0,0,0-.72-.31.81.81,0,0,0-.38,0,1,1,0,0,0-.4.19,1.79,1.79,0,0,0-.44.51,1.41,1.41,0,0,0-.23.56,1.07,1.07,0,0,0,0,.44.77.77,0,0,0,.21.37,3.56,3.56,0,0,0,.61.49l1.33.92L49.5,43l.19-.3-1.43-.93a3.23,3.23,0,0,1-.42-.31.44.44,0,0,1-.14-.29.68.68,0,0,1,.12-.4.75.75,0,0,1,.32-.3.52.52,0,0,1,.37,0,3,3,0,0,1,.46.23l1.45.83.33-.63Z"/><path className="cls-4" d="M46.42,42.35a1.09,1.09,0,0,0-.38.18,1.56,1.56,0,0,0-.39.35,1.78,1.78,0,0,0-.34.58,1,1,0,0,0,0,.54.85.85,0,0,0,.26.45.9.9,0,0,0,.45.24.77.77,0,0,0,.47-.06,3.21,3.21,0,0,0,.64-.41,2.12,2.12,0,0,1,.56-.35.3.3,0,0,1,.21,0,.22.22,0,0,1,.08.2.83.83,0,0,1-.22.44.71.71,0,0,1-.36.27.5.5,0,0,1-.38-.08c-.14.18-.28.36-.43.53a.82.82,0,0,0,.73.2,1.57,1.57,0,0,0,.84-.59,1.8,1.8,0,0,0,.35-.6.91.91,0,0,0,0-.54.7.7,0,0,0-.27-.38.72.72,0,0,0-.67-.12,1,1,0,0,0-.31.13,4.39,4.39,0,0,0-.4.26,5.4,5.4,0,0,1-.44.32.51.51,0,0,1-.25.09A.24.24,0,0,1,46,44a.39.39,0,0,1-.13-.32.76.76,0,0,1,.2-.43.67.67,0,0,1,.41-.26.79.79,0,0,1,.5.09l.32-.54A1.19,1.19,0,0,0,46.42,42.35Z"/><path className="cls-4" d="M43.58,45.12,45.3,47l-.76.67.33.4c.7-.61,1.4-1.22,2-1.9l-.38-.37-.71.73L44.05,44.7Z"/><path className="cls-4" d="M42.1,46.34l.77,1-.11.08a1,1,0,0,1-.28.17.48.48,0,0,1-.24,0,4.63,4.63,0,0,1-.54-.19l-.75-.3a6.49,6.49,0,0,1-.62.39c.21.12.43.22.64.32a3,3,0,0,0,.57.22,1.55,1.55,0,0,0,.44,0,1.08,1.08,0,0,0-.39.6.84.84,0,0,0,.12.61.81.81,0,0,0,.38.33.77.77,0,0,0,.5,0,2.53,2.53,0,0,0,.72-.38c.21-.13.41-.29.61-.44l.59-.46L42.59,46Zm1.53,2-.43.33-.43.27a.4.4,0,0,1-.28,0,.35.35,0,0,1-.22-.16.39.39,0,0,1-.07-.23.48.48,0,0,1,.09-.21,2.49,2.49,0,0,1,.48-.36l.39-.31Z"/><path className="cls-4" d="M38.82,48.35l.56,1.14c-.09.69-.21,1.4-.35,2.11l.71-.34c.07-.47.12-.94.16-1.4.41.25.82.47,1.25.69l.69-.4c-.66-.29-1.29-.61-1.9-.94l-.59-1.12C39.18,48.19,39,48.26,38.82,48.35Z"/><circle className="cls-3" cx="29.62" cy="29.68" r="19.3"/><g className="cls-5"><path className="cls-6" d="M4.89,23.36c.09,0,.1,0,.17,0s.29-.17.36-.19.12,0,0,.07a1.71,1.71,0,0,0-.28.17l.3-.12c.15-.07.14,0,.18-.12l.06-.11a3.45,3.45,0,0,0,.27.25s0,0,0,0,0-.07.07-.06,0,.07,0,.08.05,0,.12,0a0,0,0,0,0,0-.07h.06a1.26,1.26,0,0,1,.38.1c.07,0,.28.05.34.07s.08,0,.16,0,.14.1.08.13-.21.05-.13.07a1.3,1.3,0,0,0,.31,0l.37-.05c.06,0,.1,0,.16.14a.44.44,0,0,0,.13.14s0-.05,0-.09a.36.36,0,0,0,0-.18.23.23,0,0,0,0-.09c0-.05-.07,0,0-.08a.41.41,0,0,1,.24-.08c.1,0,.12.14.21.14s.1.05.25.06H9c.17,0,.11,0,.14-.1s.08-.1.11-.1a1.27,1.27,0,0,1,.18,0s0,.11,0,.15.14.12.14.12l0-.11s0-.09,0-.1.11,0,.17-.12,0-.11,0-.11,0,0,0,0,.13-.08.13-.08,0,0,0,0-.09,0-.17,0-.13,0-.14-.08a1.28,1.28,0,0,1,0-.29c0-.09.07-.06.09-.11a2.11,2.11,0,0,0,0-.36c0-.05,0-.17,0-.24s.09,0,.09,0,0-.1.13-.13a.94.94,0,0,1,.3,0l-.07.07c0,.06,0,.17-.09.25s-.25.05-.25.05.05.13,0,.17a.31.31,0,0,0,0,.12s.16.05.17.15.09.11.11.21-.08.17-.06.18,0,0,.09,0h.13a.1.1,0,0,0,0,.1c0,.05,0,.08,0,.13s0,.1.05.09a.54.54,0,0,0,.09-.2c0-.07,0-.1.06-.1a.33.33,0,0,1,.13.11.19.19,0,0,1,0,.16c-.05.08,0,.12,0,.15l.13.06c.08,0,.06,0,.11,0s0-.14,0-.14.12,0,.09-.08-.05-.1,0-.13l.1-.05a.52.52,0,0,1-.07-.15c0-.11,0-.08.18-.07s.15.06.23.1,0,.06.06.12-.07.07-.07.07-.06,0,0,.06a.67.67,0,0,0,.08.18c.05.08,0,.13-.08.19a.28.28,0,0,1-.22.08c-.08,0-.12,0-.12,0a.08.08,0,0,0-.09,0s-.14.05-.11.06.13,0,.09.08-.07.07-.15.06h-.19l-.29,0a1.53,1.53,0,0,0,.29.14.65.65,0,0,0,.26,0l-.11.19c-.06.1-.12.06-.17.06s-.09.05-.18.06a1.43,1.43,0,0,1-.27,0,.19.19,0,0,0,.1.05.28.28,0,0,1,.14.06c.05,0,0,.05-.1.06a.14.14,0,0,0-.11.06l-.17.24a.41.41,0,0,0-.08.22c0,.09-.1.2-.06.23s.17,0,.23.06.12.2.16.27.08.11.13.06.14,0,.23,0a1.36,1.36,0,0,1,.33.22c.06.05.16,0,.27.06s.13,0,.13,0,.12,0,.07.06-.06,0,0,.08a.41.41,0,0,1,0,.25c0,.06.15,0,.22.07s.08.21.11.19.1-.06.11-.1a1.21,1.21,0,0,0,0-.18.71.71,0,0,0-.07-.27c0-.06.07-.08.06-.1s0-.07.06-.09.07,0,.11,0,0-.17.06-.22a1.2,1.2,0,0,0,0-.2,1.32,1.32,0,0,0-.12-.2s-.06,0,0-.12,0-.07,0-.1,0-.09,0-.15,0-.13,0-.21-.06-.07-.05-.09a.85.85,0,0,1,.29,0,.82.82,0,0,0,.2,0,.43.43,0,0,1,.17.07c.07.05.09,0,.13.09s0,.08.12.07a.51.51,0,0,1,.15,0s-.05,0,0,.13,0,.16,0,.2,0,0,.05,0,.12.08.21.11.12,0,.15-.05,0-.06.07-.07.05,0,.06,0,0,0,0-.09a.39.39,0,0,1,.1-.16s.07,0,.11.11.16.29.2.37.08.08,0,.15-.06.1,0,.13.13.08.12.14,0,.05,0,.06.11,0,.17,0A.68.68,0,0,1,14,26s0,.06,0,.08l-.15,0s-.08.06-.07.08,0,.07,0,0a.61.61,0,0,1,.18-.09h.06s.1,0,.17,0,0,.06,0,.1,0,.08,0,.12,0,.08-.07.14a.35.35,0,0,1-.21.07c-.1,0-.14.07-.21.14s-.11,0-.21.05-.06-.05-.09,0a.59.59,0,0,1-.13.05c-.07,0-.28,0-.37,0s-.05.08-.07.13-.06,0-.12,0a.53.53,0,0,0-.21.23.8.8,0,0,1-.17.2.69.69,0,0,0,.17-.13,2,2,0,0,1,.33-.24.48.48,0,0,1,.23-.1s.12.07.12.1,0,.06-.09.11-.13,0-.13,0a.25.25,0,0,0,.09.09s0,.06,0,.09,0,.06.07.14a.31.31,0,0,0,.26.09c.07,0,0,0,.06,0s0-.06,0-.11a.2.2,0,0,1,.06-.11s.05-.06.05,0a.22.22,0,0,1-.07.19s0,0,0,.07,0,0-.15.08-.14.08-.16.07-.06,0-.11.05-.11.11-.15.11-.07,0,0-.07.07-.12.13-.15a.23.23,0,0,1,.11,0c.05,0,0,0,.06,0s0,0-.08,0,0-.06,0-.06l-.06,0-.11.05s0,0,0,0l-.09,0s0,.09-.11.1,0,0-.07,0,0,0,0,0l-.08.06c-.05,0-.08.05-.12.2a.28.28,0,0,0,0,.21s-.07,0-.09,0a.23.23,0,0,1-.12.08.76.76,0,0,0-.2.08s0,.06,0,.12l-.08.18a.1.1,0,0,0,0-.09.11.11,0,0,1,0-.07.2.2,0,0,0,0,.1.35.35,0,0,1,0,.17.35.35,0,0,1-.08.15s0,0,0-.09,0-.05,0-.07,0-.08,0-.16,0,0-.06,0a.22.22,0,0,0,0,.22c0,.06,0,.05,0,.15s0,.14,0,.15.05,0,.07,0,0,0,0,0,0,0,0,0,0,0,0,0a.14.14,0,0,1-.07,0s0,0-.08,0l-.08.09s0,0-.08.05a.6.6,0,0,1-.08.08.7.7,0,0,0-.17.14c0,.06,0,.08-.06.18a1.33,1.33,0,0,0,.11.44c0,.16.07.11.06.17a.39.39,0,0,1-.06.15s-.06,0-.11-.06,0-.06-.06-.14a.29.29,0,0,1-.05-.16.46.46,0,0,0,0-.19c0-.06-.08-.14-.16-.11s-.07,0-.11,0a.43.43,0,0,0-.23,0c-.06,0-.25,0-.29,0s-.07,0-.07,0,0,0,.06.05.06,0,.05.07-.05,0-.08,0-.06,0-.1,0-.06,0-.1-.05-.07,0-.11,0a.57.57,0,0,0-.14,0,2,2,0,0,0-.33.19.67.67,0,0,0-.17.18c0,.06,0,.06.05.14s0,.06,0,.11,0,.09-.1.21,0,.17,0,.28a1.27,1.27,0,0,0,.16.23.57.57,0,0,0,.12.11l.07,0s0,0,.08,0,.12,0,.16,0a.16.16,0,0,1,.12,0s0,0,0,0,0-.06,0-.07a.5.5,0,0,0,.08-.15s0-.14.08-.14a1.21,1.21,0,0,1,.3,0c.12,0,.07.06,0,.12s-.05.07-.05.11,0,.05,0,.08,0,0,0,0-.07.06-.06.06,0,0,0,.07v.1c0,.06-.13.12-.13.12a.24.24,0,0,0,.11,0,.56.56,0,0,1,.22,0c.07,0,.2,0,.3,0s.06.08.06.12a.91.91,0,0,1,0,.23s-.05.13-.07.2.07.12.15.18a.64.64,0,0,0,.21.09c.05,0,.13-.06.28,0a.26.26,0,0,1,.21.13.45.45,0,0,1,.08-.18c.07-.11.07-.14.17-.18l.27-.09c.16,0,.13,0,.21,0a1.91,1.91,0,0,1,.44.07c.19.06.47.07.57.12s.16.16.27.27.25.19.31.24.38.09.46.12a.34.34,0,0,1,.18.21c0,.07.08.1.18.15s.13.08.19.21.05.16.14.19.71.2.87.26a4.11,4.11,0,0,1,.4.24c.05,0,.15,0,.19,0s0,.15,0,.23.06.09,0,.16-.16.21-.2.29a.62.62,0,0,1-.22.15c-.05,0-.11,0-.05.07s0,.11-.05.17,0,0,0,.23,0,.38,0,.46-.14-.07-.28.1-.17.3-.26.32a1.24,1.24,0,0,0-.34.18.43.43,0,0,0-.12.17c0,.09-.08.27-.13.38s-.11.17-.28.32a3.68,3.68,0,0,0-.35.42l-.1.11c-.06.06-.29-.09-.23,0s0,0,0,.06.07.08,0,.18a.31.31,0,0,1-.25.09c-.06,0-.16-.06-.17,0s0,.14-.1.17-.19.06-.18.08c.06.29.2.33,0,.31-.39,0-.11-.13-.38.43,0,.09-.08,0-.07.14a.36.36,0,0,0,.05.24c.06.07,0,.06-.07.15a.53.53,0,0,0-.19.2c-.09.13-.17.12-.14.22s0,.24.09.39.16.12.33.22.19,0,.27.07-.06,0-.21.06a1.07,1.07,0,0,1-.34,0,1.81,1.81,0,0,1-.44-.22,1,1,0,0,1-.26-.27l-.15-.35c-.06-.14,0-.23,0-.54a4.41,4.41,0,0,1,.1-.73c0-.17.18-.91.22-1.1s.21-1,.22-1.1,0-.22.06-.34a2.84,2.84,0,0,0,0-.39l-.05-.14a.36.36,0,0,0-.19-.21l-.24-.16a1,1,0,0,1-.22-.2,1.74,1.74,0,0,1-.17-.33c0-.08-.17-.32-.28-.49a1,1,0,0,1-.19-.36c-.06-.18,0-.18.08-.28a1.65,1.65,0,0,1,.16-.34c.08-.15.18-.19.24-.31s0-.13,0-.25,0-.11,0-.17-.06-.15-.09-.17a.09.09,0,0,0-.12,0s-.09.14-.12.14-.05,0-.07,0-.12,0-.14,0-.08,0-.11,0l-.21-.12a.26.26,0,0,1-.09-.19c0-.08-.07-.11-.23-.23a.91.91,0,0,0-.43-.17.78.78,0,0,1-.34-.23c-.07,0-.06-.07-.21-.06a.89.89,0,0,1-.43-.11,2.23,2.23,0,0,1-.39-.13c-.08-.05-.23-.07-.29-.2s-.05-.08,0-.19-.14-.21-.24-.32-.17-.12-.23-.25-.12-.13-.22-.22a.77.77,0,0,1-.15-.32c0-.11-.32-.27-.32-.27l.11.26a3,3,0,0,0,.18.37c.09.13.16.16.24.29s0,.21,0,.16-.14-.07-.14-.13a.27.27,0,0,0,0-.15c0-.05-.13-.1-.23-.18s-.18-.12-.11-.12.15.06.14,0-.14-.15-.19-.24A1.15,1.15,0,0,1,7,29.81a.57.57,0,0,0-.36-.28c-.1,0-.13-.06-.16-.16a1.54,1.54,0,0,0-.09-.28c0-.08-.24-.35-.24-.45a1.52,1.52,0,0,1,0-.56,1.62,1.62,0,0,0,0-.6c0-.07-.13-.21-.13-.27s.07,0,.12,0a1.2,1.2,0,0,1,.18.06,1.42,1.42,0,0,0-.15-.22.8.8,0,0,0-.29-.15c-.07,0-.17,0-.2-.1l-.11-.19c0-.05-.15-.11-.17-.16s0-.16-.06-.21a.14.14,0,0,0-.16-.07c-.06,0-.08,0-.13-.11a.37.37,0,0,0-.19-.12.55.55,0,0,1-.14-.19,1.69,1.69,0,0,0-.23-.25,5.58,5.58,0,0,0-.61-.21,1.28,1.28,0,0,1-.21,0s-.18-.13-.25-.16-.13,0-.16.11a1.13,1.13,0,0,1-.3.27c-.09.06-.17.07-.16,0a.41.41,0,0,1,0-.16A.21.21,0,0,1,3,25.26c.09-.05.09-.05,0-.05s-.06,0,0-.05.11-.05.11-.09-.17.05-.27.13a.83.83,0,0,0-.26.29c-.09.14,0,.09-.06.18a4.48,4.48,0,0,1-.42.36,1.65,1.65,0,0,1-.51.27.74.74,0,0,0-.25.11c-.06.05-.21.06-.16,0l.21-.15.3-.13A1.39,1.39,0,0,0,2,26a1.84,1.84,0,0,0,.17-.25c0-.08,0-.11,0-.08a.42.42,0,0,1-.25,0s-.19.06-.24,0,0-.11,0-.15-.14,0-.21,0-.17-.07-.17-.16-.07-.18,0-.25A.34.34,0,0,1,1.4,25a.69.69,0,0,1,.27-.1.17.17,0,0,0,.11-.07s-.07-.14-.07-.14l.06,0s0-.08-.07-.07-.22.08-.32.11-.23,0-.23,0,0-.07,0-.1-.06-.07,0-.08l.25-.13a.29.29,0,0,0,.15.09c.09,0,.26-.15.26-.15s-.08-.08-.08-.08a.67.67,0,0,1-.22,0c-.05,0-.06-.07-.07-.12s-.19-.08-.14-.15.14-.1.2-.17a.75.75,0,0,1,.28-.29,3.65,3.65,0,0,0,.46-.2c.09-.07.13,0,.17,0s.25,0,.33,0,.1.09.12.12.76,0,.76,0a5.68,5.68,0,0,1,.74.05,3.07,3.07,0,0,1,.35.12C4.82,23.52,4.81,23.36,4.89,23.36ZM13.2,19.7a.47.47,0,0,1-.31.32,6.87,6.87,0,0,0-.72.28s0,.15.09.22.12.12.17.19.15.06.23.13.13.05.34.05l.38,0a1.36,1.36,0,0,1,.56.11,1.91,1.91,0,0,1,.26.5c.07.16.2.44.2.46s-.08.23-.08.26,0,.08.08.13,0,.08,0,.12a.44.44,0,0,0,.05.15s.11-.1.18-.12.23.12.23.21.05.14-.29.38a.6.6,0,0,0-.06.4c0,.12.12.26.19.44a3.94,3.94,0,0,0,.32.52c.06.11.08.26.22.29l.37.11c.1,0,.16.05.21,0a5.76,5.76,0,0,0,.22-.69c.08-.25,0-.33.18-.39s.49-.17.57-.2.06-.29.24-.37a3.3,3.3,0,0,1,.37-.13,2.12,2.12,0,0,0,.59-.28c.17-.12.22-.06.28-.17s-.06-.27-.07-.43.05-.18.09-.32a.48.48,0,0,1,.18-.35c.14-.1.21-.16.19-.25a1.4,1.4,0,0,1-.1-.35c0-.1,0,0,0-.18a.32.32,0,0,1,0-.3c.05-.14.19-.11.18-.17s-.22-.15-.22-.31,0-.22.07-.26.38-.32.41-.34,0-.1.16-.18.24-.14.3-.16.17,0,0-.08a.85.85,0,0,0-.38-.07,2,2,0,0,1-.41.11,2.75,2.75,0,0,0-.5.13s.08-.07,0-.13.18-.29.22-.31-.32-.12-.51-.15a3.26,3.26,0,0,0-.78-.13,4.89,4.89,0,0,0-.64.05c-.1,0-.09.17-.21.17a3.8,3.8,0,0,0-.52,0,2.51,2.51,0,0,0-.48.15s.11.09.2.11.21.2.21.2l-.49-.15a1.34,1.34,0,0,0-.63,0,1.66,1.66,0,0,1-.44.09,1.23,1.23,0,0,0-.54.25c-.11.07-.47.28-.56.32s-.05.07,0,.1ZM8.08,22.31c0,.11,0,.28,0,.21s-.11-.22-.22-.16a.22.22,0,0,1-.2,0s0-.07,0-.09-.09,0-.14,0-.23.07-.16,0,.05-.09,0-.15-.2,0-.3.11a.9.9,0,0,0-.21.24c-.06.07,0,.12.07.14s.23,0,.11.08-.21.08-.15.11a.46.46,0,0,0,.27,0,.74.74,0,0,1,.36,0,1.19,1.19,0,0,0,.26,0,.39.39,0,0,1-.17.05c-.11,0-.32,0-.42,0s-.27.05-.22.09a.43.43,0,0,0,.21.14c.14,0,.17,0,.26,0s0,.12.06.13a1.06,1.06,0,0,0,.34,0c.16,0,.1-.05.23-.09s.13-.12.21-.14,0,.05.1.07l.14,0c.09,0,.07,0,.17,0s.2-.06.18-.08,0,0,0-.08-.09,0-.12,0,0-.05,0-.09.15,0,.19,0,0-.13-.08-.15a1.09,1.09,0,0,1-.24-.14c-.12-.07-.06-.1-.1-.19s-.11-.35-.18-.39-.14,0-.21-.08A.35.35,0,0,0,8.08,22.31Zm-1.91-.18c0,.08,0,0,0,.12s0,.13-.06.2-.16.16-.12.21.14.07.19.11.09.11.18.08l.16-.08c.06,0,.11-.06.11-.13s0-.11,0-.11.06,0,.07,0a.38.38,0,0,1,.09-.15s.16-.08.21-.12.14-.1.17-.13,0-.07-.09-.09S7,22,6.87,22s-.16.07-.15,0-.07-.05-.11-.07a.48.48,0,0,0-.21,0,1.92,1.92,0,0,0-.29.05C6,22,6.14,22.05,6.17,22.13Zm3,1s-.07,0-.11.08.08,0,.11,0,.07.05.1.06a.49.49,0,0,0,.26,0c.06,0,.07,0,.06-.05a.83.83,0,0,0-.23-.19c-.1-.05-.1-.06-.12,0A.54.54,0,0,0,9.17,23.14Zm-.44-1c-.06,0-.1.07,0,.12s.14.1.21.14.1.17.25.12a.38.38,0,0,0,.23-.18c0-.06,0-.08-.05-.13s0-.08-.13-.07h-.1a.37.37,0,0,1,.14-.11c.08,0,0-.06.05-.1s-.1-.06-.16,0-.06,0-.16,0-.26.08-.25.11.08,0,.15.06.09,0,0,.14-.1,0-.13,0S8.8,22.12,8.73,22.15ZM8.29,22c-.1,0-.14.08-.1.09s.07,0,.13.06.12.1.14,0S8.45,22,8.29,22Zm-1.66-.81c-.12.09-.14.16-.23.21s-.07.11,0,.14.12,0,.16,0,.08-.08.1,0,.13-.11.18-.16l.11-.09s0,0,0,.1.1,0,.18,0,0-.15.06-.21.11-.05,0-.1a.15.15,0,0,0-.2,0S6.85,21,6.63,21.15Zm.7.14a.39.39,0,0,0-.2.06.33.33,0,0,0-.18.23c0,.06,0,.06.11.1a.22.22,0,0,0,.27-.1c0-.09.07,0,0,.07s.07,0,.11,0a.74.74,0,0,1,.18,0,.86.86,0,0,1-.21.12,2,2,0,0,1-.23.06s0,0,.16.07.2-.07.38-.14.17-.08.23-.06a.53.53,0,0,0,.2,0c.07,0,.1,0,.14-.1s.09-.21,0-.21-.11,0-.12.11,0,0,0,0a1.46,1.46,0,0,0-.12-.15A1.42,1.42,0,0,0,8,21.11c0-.05-.07,0-.14.09s0,.11.06.15.12.12.08.14-.07,0-.2,0-.13,0-.16-.06.06-.05-.08-.11S7.38,21.29,7.33,21.29Zm-.43.11s-.17.11-.2.15,0,0,.09,0S6.86,21.48,6.9,21.4Zm.37-.28s0,0,0,0,.12,0,.1-.05S7.31,21.1,7.27,21.12Zm.39-.4a.71.71,0,0,0-.21.08.17.17,0,0,0,0,.13s0,.05.16,0,.21-.1.17-.11a.45.45,0,0,0-.11,0s0,0,.12-.05S7.94,20.67,7.66,20.72Zm-.44.07s0,0,0,0,.16,0,.15,0A.13.13,0,0,0,7.22,20.79Zm.3-.21a.18.18,0,0,0-.1.1s.08,0,.12,0,.06,0,.1,0,.13,0,.21,0,.09-.06.07-.11S7.73,20.5,7.52,20.58Zm.78.19s0,0,0,.08,0,0,.06,0l.09.06s0,0,0,0,0,0-.05-.08S8.36,20.74,8.3,20.77Zm.27.33c-.06,0-.09,0-.12,0s0,0,0,.08,0,.06.09.06.11,0,.12-.06S8.62,21.11,8.57,21.1Zm.34.1c-.06,0-.08-.07-.14-.05s0,.05,0,.06.07,0,.07,0,0,.05-.06.05-.1,0-.13,0,.06,0,.09,0,.07,0,.15,0l.18,0a.39.39,0,0,0-.08.09s0,.09,0,.11,0,0,.16,0,.14-.05.14-.05a.15.15,0,0,1,0-.08v-.07l.05,0a.32.32,0,0,0,0-.09c0-.06,0-.06,0-.14s0-.1-.1-.1a1.77,1.77,0,0,1-.21,0c-.07,0-.1,0-.05,0A.22.22,0,0,1,9,21.2a.12.12,0,0,1,0,.09Zm-.42.3h0a.14.14,0,0,0-.05.08s.05,0,.13,0S8.6,21.46,8.49,21.5Zm1.09-.15a.53.53,0,0,0-.16.13s0,0,.09.09.2.06.25,0S9.74,21.27,9.58,21.35ZM10,21a.32.32,0,0,1-.23,0,1.63,1.63,0,0,0-.36,0s0,0,0,.1.06.11.17.09.19-.05.26.06.12.14.06.18,0,.1,0,.19.12.08.23.08.85,0,1,0a.76.76,0,0,0,.27-.15c.06-.05.1-.11,0-.16a.63.63,0,0,0-.29-.1c-.09,0-.17,0-.31.07s-.12.08-.24.08-.07.06-.23,0-.27-.14-.19-.15.13,0,.09-.05A.3.3,0,0,0,10,21ZM8.55,20.4c.08,0,.1,0,0,.07s-.16.08-.07.07a.65.65,0,0,1,.27,0c.1,0,.1,0,.14.07s.1.06.18,0,.08,0,0-.07A.77.77,0,0,0,9,20.41a.37.37,0,0,0-.19-.09c-.06,0-.08,0-.13-.06s-.11,0-.19,0-.11.08-.14.1S8.48,20.37,8.55,20.4Zm1-.77c-.09.11-.16.2-.06.21s.15,0,.15,0,0,.05-.17.05-.1,0,0,.13.1.06.23.06.17-.05.28,0,.14.05,0,.08-.33.08-.27.13a.81.81,0,0,0,.28.17c.07,0,.09,0,.25,0s.12,0,.13,0a2,2,0,0,0,.12-.19s.07-.06.15-.08.12-.05,0-.08-.17,0-.16-.06.06-.09,0-.12-.09,0-.13,0-.1-.1-.15-.13a1,1,0,0,1-.18-.09c-.07-.05-.18-.18-.32-.17S9.64,19.52,9.55,19.63Zm-.18.92s-.12,0,0,.07,0,.06.12,0a.58.58,0,0,0,.21-.13s-.08-.06-.14-.08a1.7,1.7,0,0,0-.23-.11C9.09,20.28,9.41,20.53,9.37,20.55Zm4.23-1.64a2.75,2.75,0,0,0-.82-.1c-.16,0-.16-.08-.39,0s-.58,0-.69,0,.05.06.11.1a2.43,2.43,0,0,0-.54,0c-.27.07-.44.11-.16.21a2.08,2.08,0,0,1,.32.14,4.15,4.15,0,0,1-.51-.13c-.15-.06-.07-.05-.35,0s-.57.12-.55.21.23.19.37.22a1.32,1.32,0,0,0,.46-.05s-.11.12-.11.12l.31-.08a3.88,3.88,0,0,0,.45-.14.64.64,0,0,0,.18-.07,2.3,2.3,0,0,1-.46.28,1.9,1.9,0,0,1-.54.12c-.12,0-.1.08,0,.13a1.75,1.75,0,0,1,.27.23.17.17,0,0,1,.07.11.33.33,0,0,0-.38,0c-.2.14-.17.21-.12.23s.22,0,.26.09.26-.05.26-.05-.12.14-.23.14-.1-.09-.26-.08-.16.06-.09.11.13.07,0,.13-.18.07-.18.14.15.07.26.07l.38,0c.18,0,.16-.06.23-.06s.14,0,.11.09,0,0,.23-.05.11-.18.1-.22-.09-.05-.14-.07.14-.21.11-.27.23,0,.34-.16.08-.25,0-.28.15,0,.22,0,.24-.09.3-.17.09-.11-.07-.1.23-.06.41-.18l.44-.29s.09,0-.13,0-.47,0-.33,0a2.42,2.42,0,0,0,.68-.15A.89.89,0,0,1,13.6,18.91ZM11,21.83c-.23,0-.57-.08-.63.12a5.94,5.94,0,0,0-.19.7c0,.08.28.2.48.21s.52,0,.45,0,0-.07.18-.06.2,0,.2-.08,0,0,.16.12.24.25.36.36.37.26.32.34.05.38-.34.45-.42,0-.42.11,0,.13.18.13.38-.13.45,0a.46.46,0,0,0,.24.15c.06,0-.08.06-.12.07s.08,0,.31.13.5.12.36,0-.2-.21-.26-.26,0,0,.11,0a.55.55,0,0,1,.24.15c.05,0,.07,0,.11-.16s0-.15-.2-.27-.23-.21-.25-.29.09-.1.14-.16.17.1.26.2.16.26.23.14a1.41,1.41,0,0,0,.13-.46c0-.06-.07,0-.36-.14a2.34,2.34,0,0,0-.48-.19.67.67,0,0,1,.21-.12c.13-.07.19-.06-.09-.31s-.35-.31-.53-.33-.23-.2-.36-.27-.43.08-.52.1-.06.05-.17-.1S11,21.83,11,21.83Zm.21,0c-.12,0,.07.22.22.23a.86.86,0,0,0,.3-.07A1,1,0,0,0,11.23,21.83Zm-.52,2.09a1.05,1.05,0,0,0-.07.26.54.54,0,0,1,0,.15c0,.05.06,0,.1.07s0,.1.12,0a.27.27,0,0,1,.3-.09c.12,0,.22.06.18,0s-.1-.06-.18-.16a.53.53,0,0,0-.25-.16C10.76,23.94,10.75,23.82,10.71,23.92Zm.87,7.37a.37.37,0,0,0-.31-.23.5.5,0,0,0-.38.07c-.09,0,.07,0,.18,0s.19,0,.2,0,0,0,0,0,0,.05.1.09.15.06.16.12a.28.28,0,0,0,0,.12s0,.06,0,.07,0,0,0,0a.43.43,0,0,0,.22.07c.1,0,.14,0,.06-.06S11.59,31.32,11.58,31.29Zm.34.47a.15.15,0,0,1,0,.15s-.06,0-.18,0-.1,0,0,0,.17,0,.16.11.1,0,.14,0,0,0,.22,0,.21,0,.18,0,.09-.07-.07-.15S11.85,31.69,11.92,31.76Zm-.51,0c-.07-.07-.15-.08-.16,0s0,.06.09.07S11.45,31.85,11.41,31.8Zm1.3.32c-.08,0-.09,0,0,.07s.12,0,.19,0S12.83,32.16,12.71,32.12Zm-.85-8.81c-.09,0-.15.06-.07.17s.14.18.17.1S12,23.24,11.86,23.31Zm-.77,1.17c-.15,0-.2,0-.17.1s.06.07.16,0S11.25,24.45,11.09,24.48Zm.3.12s0,.06,0,.11.1,0,.12-.08S11.48,24.57,11.39,24.6ZM9.8,20.71c-.14,0-.35.05-.23.06s.21,0,.39,0,.21,0,.21-.11S10.05,20.7,9.8,20.71ZM8.93,20c-.14,0-.1.07.06.14s.17,0,.16-.09S9,19.94,8.93,20Zm9.85,3.52c-.17.05-.23,0-.26.11s-.1,0-.14,0-.1.25-.13.22l-.07-.14c0-.09,0-.07-.07-.16s-.23-.08-.24,0,.11.06.07.11-.14.09-.17.12.07,0,.13,0,.11,0,.14.09,0,.09-.06.11.1,0,.15,0a.06.06,0,0,1,0,.1c0,.05.14,0,.24,0s.13.07.28,0a.85.85,0,0,0,.36-.14c.14-.1.13-.08.22-.14s.07-.09.07-.16.06,0,0-.08-.13-.08-.21-.09-.08-.07-.12-.09S19,23.44,18.78,23.49Zm11.67,9.28a.23.23,0,0,0,0,.11,1,1,0,0,0,0,.17c0,.06,0,.1,0,.11a.1.1,0,0,0,.11,0c.05,0,.1-.06.07-.13a.93.93,0,0,0-.1-.2S30.46,32.72,30.45,32.77Zm0-.08s0,0,0,0,0,0,0,0,0,0,0,0,0,0,0,0m5,3.36h0c-.1.1-.18.07-.35.12a1.12,1.12,0,0,0-.47.29c0,.07,0,.08,0,.07l-.06-.05a.36.36,0,0,0,0,.16.79.79,0,0,1,0,.23c0,.1,0,.16,0,.23s.12.2.15.29a.5.5,0,0,1,.07.2c0,.15.09.23,0,.31s-.13.07,0,.15a.3.3,0,0,0,.33.08c.16-.05.12-.1.24-.13a1.38,1.38,0,0,1,.25,0c.1,0,.18,0,.21-.07s0-.07.12-.12a.78.78,0,0,1,.16-.08c.07,0,.11,0,.21,0s0-.07.23-.07a.93.93,0,0,1,.37,0,.53.53,0,0,1,.23.14c0,.05.07.1.09.1s0,0,.08,0a1.12,1.12,0,0,1,.18-.14.25.25,0,0,1,0,.14.17.17,0,0,0,0,.11l.09-.07s0,.14,0,.15.05,0,.08.05a.48.48,0,0,1,.1.15.35.35,0,0,0,.25.17.49.49,0,0,0,.21,0c.07,0,.07-.08.14-.05s0,.09.15.07a.45.45,0,0,0,.26-.1c.06,0,.07.06.15,0s.09-.08.1-.21a.49.49,0,0,1,.09-.28c.07-.12.09-.06.14-.24a1.46,1.46,0,0,0,.11-.5.45.45,0,0,0,0-.22c0-.17,0-.15-.12-.22s-.14,0-.16-.15,0-.12,0-.12-.1,0-.13-.05,0-.09-.08-.15-.12,0-.22-.1-.06-.06-.06-.14,0-.17-.08-.21,0,0,0-.11,0-.12-.07-.14-.09,0-.13-.11a1.62,1.62,0,0,1-.13-.27c0-.05,0,0-.07,0a.4.4,0,0,0-.07.21c0,.08,0,.13,0,.24a.49.49,0,0,1-.13.28c0,.06-.08,0-.13,0s-.05-.08-.13-.12a1.4,1.4,0,0,1-.33-.15c-.07-.06,0-.06,0-.13a.5.5,0,0,1,.11-.17c.06,0,0-.06,0-.1a.72.72,0,0,0-.28,0c-.12,0-.19,0-.18.06s.08.09,0,.07-.19,0-.23,0a.38.38,0,0,0-.08.17c0,.1,0,.11,0,.11a1.39,1.39,0,0,1-.26-.1c-.06,0-.09,0-.15,0s-.29.25-.37.29S35.47,35.79,35.38,36.05ZM32.31,33.2c-.05,0-.08,0,0,.06a.92.92,0,0,0,.14.14c0,.05.07,0,.12.06s0,.11.07.15.08,0,.09.08a.25.25,0,0,0,.08.14c.05,0,.05,0,.08.12s.07.14.1.21.15.13.22.22.18.2.2.17.06,0,.1,0,0-.06.07-.18a.18.18,0,0,0-.06-.2s-.09,0-.1-.06,0-.11-.09-.14-.05,0-.05-.06.05-.06,0-.1-.06-.07-.08-.09-.14-.05-.18-.08a2.56,2.56,0,0,1-.23-.16,1.2,1.2,0,0,1-.16-.16S32.52,33.23,32.31,33.2Zm1.34,1.36c-.06,0-.08,0-.12,0s0,.07,0,.07.05,0,.05,0l.09,0a.36.36,0,0,0,.23,0s0,0,.21.06.24,0,.35,0,.07,0,0-.06-.07,0-.14-.08a.44.44,0,0,0-.23-.06s0,.05-.1,0-.1,0-.17,0a.28.28,0,0,0-.13-.06C33.66,34.54,33.65,34.56,33.65,34.56Zm1.17.23s-.13,0-.09.05,0,0,.13,0a.68.68,0,0,0,.25,0s0,0-.07,0,0,0-.12,0A.19.19,0,0,1,34.82,34.79Zm.43,0c-.08,0-.07,0,0,0a.26.26,0,0,0,.17,0l.15,0,.19,0h-.11s-.14,0-.17,0-.1,0-.12,0S35.34,34.77,35.25,34.78Zm.46.11h0c-.06,0-.06,0-.06.08s0,0,0,0a.2.2,0,0,0,.14-.07.25.25,0,0,1,.14-.08.55.55,0,0,0,.14-.09H36a.23.23,0,0,0-.14,0S35.84,34.83,35.71,34.89Zm-.48,0c-.06,0-.12,0-.13,0s-.05,0,0,.05.16.07.16,0S35.25,34.94,35.23,34.92Zm-.55-1.76c0,.05,0,0,0,.08s-.09,0-.14.09a.76.76,0,0,1-.16.13s-.14,0-.18.11,0,.09,0,.09,0,0-.1,0-.08-.06-.08-.06,0,0-.08.07,0,.09,0,.14,0,.05,0,.08,0,.09.05.09,0,0,.07,0,0,.19.06.19.09,0,.13,0a.22.22,0,0,0,.14,0,.24.24,0,0,1,.15,0,.36.36,0,0,0,.19.05s.06,0,.07-.06,0-.15.07-.2.06-.06.07-.11a.27.27,0,0,1,0-.17s.06,0,.08,0,0,0,0-.06-.07,0-.09-.06,0-.06,0-.14-.05-.05,0-.1.08-.06.08-.09,0,0,.07-.07,0,0-.05-.05S34.9,33,34.85,33,34.71,33.12,34.68,33.16Zm6.81,4.47s-.05,0,0,.06.06,0,.09,0,.06.12.08.15l.05.06a.87.87,0,0,1,0,.19s-.06.08-.07.13.06,0,.1.06,0,0,0,.06-.07.07-.07.08.1.06.14,0a.87.87,0,0,0,.15-.2c0-.06,0,0,0-.08s.06,0,.09-.08.07-.11,0-.14-.08,0-.11,0a.14.14,0,0,1-.11,0c-.05,0-.06,0-.08-.06a.22.22,0,0,0,0-.07s0,.07,0,.05,0-.05,0-.09a.2.2,0,0,1,0-.08s0-.09-.08-.1S41.51,37.65,41.49,37.63Zm0,.77a.51.51,0,0,0-.12.13.71.71,0,0,0-.09.15.46.46,0,0,1-.19.15c-.11.05-.16.08-.19.13l-.19.24s.06,0,.15,0,.2.08.27,0a2,2,0,0,0,.18-.31,1.17,1.17,0,0,1,.16-.15c.07-.06.18-.17.18-.22a.39.39,0,0,0,0-.11.07.07,0,0,1-.08,0C41.49,38.47,41.5,38.4,41.5,38.4Zm-.54.8c-.09,0-.1,0-.11.12s0,0,.1,0S41,39.22,41,39.2Zm-2.74-.55c-.1,0-.08.06-.07.12a1.22,1.22,0,0,0,.07.17.23.23,0,0,0,.21.05c.06,0,.09-.11.14-.18a.32.32,0,0,0,.07-.2s-.08,0-.12.06-.09.07-.17,0A.54.54,0,0,1,38.22,38.65Zm-1.15-4.52c-.08,0-.11,0-.17-.16s-.11-.14-.26-.09-.13,0,0,.08l.13,0s.16,0,.13,0-.17.05-.08.11.05,0,.28.13.27,0,.34.17.07.12,0,.16-.14.08-.1.08l.25,0c.15,0,0,.09.18.09a.3.3,0,0,0,.29-.13c.07-.08.08,0,.23,0s.2.16.38.21.27.11.15,0a3,3,0,0,0-.31-.3c-.16-.13-.17-.14-.21-.23a.91.91,0,0,0-.39-.28A3.17,3.17,0,0,0,37.4,34C37.18,33.91,37.14,34.12,37.07,34.13Zm-1.21-.42c-.07,0-.08,0-.13,0s0,.07-.16,0-.15-.08-.28,0,0,.13,0,.19a1.06,1.06,0,0,1-.14.31c0,.06,0,.09,0,.13s.06,0,.08,0a.53.53,0,0,1,0,.24s.05.06.12,0,0,0,0-.08a1.52,1.52,0,0,0,0-.19v-.16s0,0,0,0,.06.14.1.19.06.09.11.05l.09-.07s-.09,0-.09-.07,0,0,0-.16-.1-.11,0-.11.08-.09.13-.11a.21.21,0,0,1,.12,0,.13.13,0,0,0-.12,0,.74.74,0,0,0-.21.07c-.06,0-.11,0-.13,0a.44.44,0,0,1,0-.17c0-.08.11,0,.19,0s.07,0,.24,0,.17,0,.22-.09a.74.74,0,0,0,.08-.15Zm.38-.23a.89.89,0,0,0-.14.12s0,0,0,.09,0,.15,0,.17.07,0,.07,0a.2.2,0,0,1,0-.11s0-.08,0-.15S36.2,33.56,36.24,33.48Zm-.26.69c-.11,0-.15,0-.15,0s0,.08.1.08S36.17,34.25,36,34.17Zm.21,0s0,.09,0,.14,0,0,.09,0,0-.05.13-.06a1.19,1.19,0,0,1,.23.05s0,0-.09-.11A.3.3,0,0,0,36.19,34.14Zm-2.11-2.68H34s-.05,0-.08.05,0,0,0,.08.05,0,.1.06,0,0,.07,0,.05-.05.06-.08a.11.11,0,0,1,0-.05s0,0,0,0Zm1.25.15s-.07.07-.08.13a.19.19,0,0,0,0,.13s0,.05,0,.05l-.06,0a.3.3,0,0,0,0,.09c0,.05,0,.07,0,.1s.1,0,.11.06,0,.07,0,.08a.2.2,0,0,1,.12.06s0-.08,0-.08a.19.19,0,0,1,.09.09.09.09,0,0,0,.06,0s-.05-.08,0-.09,0,0,0-.06a.31.31,0,0,0-.15,0c-.05,0-.05,0-.09-.06a.26.26,0,0,1,0-.16s0,0,.05,0a.26.26,0,0,0,0-.17c0-.06,0-.08,0-.08S35.35,31.63,35.33,31.61Zm.55,1.13s0,0-.06,0,0,0-.06,0l-.1.08v0s0-.06,0,0a.14.14,0,0,1-.09.08.17.17,0,0,0-.09.1s0,0,0,0a.16.16,0,0,0,.05-.06s0,0,.1,0,.05,0,.07,0,0,.08,0,.11,0,.08,0,.1,0,0,.09,0,0,0,0,0a.19.19,0,0,1,0-.08s0,0,0,0,0,0,0,.07,0,0,0,0a.61.61,0,0,0,0-.14s0-.07,0-.1a.1.1,0,0,0,0-.08l-.07-.06Zm-.27-.26s0,0,0-.07-.05-.07-.12-.08-.16,0-.13.09,0,.09.11.1a.12.12,0,0,0,.1,0s0,0-.05,0-.07.11,0,.13,0,.07.07,0,0-.09.11-.14.06-.06.06-.12a.29.29,0,0,0,0-.1Zm.13-.15s0,0,0,0,.08,0,.07.08,0,0,0,0h0s0,0,0,0,0,0,0,0,0,0,0,.07,0,0,0,0a.33.33,0,0,1,0-.1s0-.06,0-.05,0,.07,0,0a.28.28,0,0,0,0-.13s0,0-.08,0Zm-.59.14s0,0,0,.08a.21.21,0,0,1-.08.12l-.14.15.07,0a.25.25,0,0,0,.14-.12c0-.05,0,0,0-.05s0,0,0-.08S35.18,32.47,35.15,32.47ZM39,34.2c0,.06,0,.07,0,.12a.34.34,0,0,1-.17,0c-.06,0,0,0-.09,0s-.09,0-.06,0,0,.07.13.06a.86.86,0,0,0,.27-.08c.07,0,.06-.08.07-.1S39,34.13,39,34.2Zm.3.12.06.09c0,.06.1.07.14.08s0,0,0-.06,0-.07-.09-.11S39.21,34.25,39.26,34.32Zm-3.89-3.54c-.15.1-.22.09-.16.21s.1.16.11.18,0,0,.08-.1,0-.22.06-.25S35.42,30.75,35.37,30.78Zm2.53-4.54c0,.06,0,.16,0,.17s-.06.08-.07.15a.3.3,0,0,0,0,.21c0,.05,0,.06,0,.1a1,1,0,0,1,0,.24.22.22,0,0,0,0,.16,1.19,1.19,0,0,1,0,.19,1.67,1.67,0,0,0,0,.23s0,0,0,0a.08.08,0,0,1,.11,0l0,0s0,0,0-.14-.09-.13-.07-.27,0-.15.11-.16.12.09.13.1,0,0,0-.12a.65.65,0,0,1-.06-.21.33.33,0,0,0-.08-.22s0-.08,0-.12a.3.3,0,0,0,0-.17c0-.07,0-.17,0-.21s-.06,0-.06,0Zm-.07,1.62a.25.25,0,0,1,0,.14c0,.05,0,.06,0,.14s-.11,0-.11,0a.14.14,0,0,1,0,.09s-.1,0-.08.09a1.17,1.17,0,0,0,.07.15l.06,0,0,0s0,0-.06,0,0-.07,0-.09.07,0,.12,0,.07,0,.12,0a.3.3,0,0,0,.13.05.43.43,0,0,1,0-.1s.09,0,.16,0,.11,0,.09-.06,0-.09,0-.13-.06,0-.1,0-.07,0-.12,0a.74.74,0,0,1-.16-.19S37.82,27.81,37.83,27.86Zm-.21.69a.12.12,0,0,0,0,.12c0,.07.06,0,0,.19a.53.53,0,0,1-.17.28.19.19,0,0,1-.16,0s0-.06,0-.07-.06,0-.1,0,0,0,0,.07-.07.11-.06.14,0,.05,0,.06-.06,0-.08,0-.07,0-.15,0-.1,0-.14.1-.11.06-.17.09,0,.1-.1.13a.11.11,0,0,0-.07.12s0,0,0,0,0-.06.05,0,0,0,0,0l0,.1s0,.06,0,.1.06,0,.13-.08.07-.09.06-.16,0-.08-.08-.1-.06,0,0-.06.07,0,.11,0a.81.81,0,0,1,.21,0c.08,0,.17-.05.17,0s0,.12,0,.14.06,0,.12,0,0,0,0-.07a0,0,0,0,1,0-.05s0,.06.12,0,.1-.06.13,0,0,0,.07,0,.05,0,0,0,.11,0,.14-.05,0,0,0-.07,0-.07,0-.15a1,1,0,0,0,0-.15c0-.06,0-.06,0-.07s0-.07.05-.11,0-.05,0-.14,0-.07,0-.13a.28.28,0,0,1,0-.12s-.1,0-.11.05v0S37.66,28.53,37.62,28.55Zm-.64.94-.24.05c-.06,0-.07.05-.06.11a1.27,1.27,0,0,0,0,.14s0,0,.1,0,0-.12.11-.12,0,.06.1,0,0-.09,0-.13S37,29.49,37,29.49Zm6.45-4.67c-.1,0-.14,0-.15,0s0,.06,0,.08.1,0,.17,0a.15.15,0,0,0,.2,0A1.74,1.74,0,0,0,43.43,24.82Zm-1.24-1.69s-.08,0-.07.07,0,.11.16.09l.21,0a.68.68,0,0,0,.21,0,.32.32,0,0,0-.09-.09c-.06,0-.13,0-.27,0Zm-3.9-1.42s.18.14.24.17.11,0,.24,0,.14-.07.16-.1-.07,0-.15,0a1.29,1.29,0,0,0-.2,0s.05,0,0-.06-.09,0-.11,0,0,0-.06,0S38.29,21.68,38.29,21.71Zm-.67.22c-.06,0-.06,0,0,.1s0,0,0,.08,0,0,.1,0,.14.12.2.14a.18.18,0,0,0,.1,0,.55.55,0,0,0-.08-.14c-.06-.07-.18-.09-.2-.16S37.7,21.89,37.62,21.93Zm.61-.31L38,21.48a.69.69,0,0,0-.23-.11s0,.05-.05.09,0,0-.1,0a2,2,0,0,0-.21-.1c-.07,0-.11,0-.19.12s0,.1.06.22.14.12.22.08.06-.08.11-.06a1,1,0,0,0,.27,0s0,.11.07.08.17,0,.2-.09Zm-6-2.26s-.18,0-.25.13-.13,0-.17.11a1.19,1.19,0,0,0-.07.15.24.24,0,0,0,.14.08.32.32,0,0,1,.28.12c.07.1.12.1.29.12s.1.05.19.05.21,0,.18,0a.23.23,0,0,1,0-.16c0-.08.09-.08,0-.13s-.17,0-.16,0,.08,0,.05,0-.19,0-.21-.1,0-.09.08-.1,0,0-.07-.08a1.34,1.34,0,0,0-.22-.13C32.22,19.34,32.27,19.34,32.25,19.36Zm.86.64c-.06,0-.12.08-.16.13a1,1,0,0,1-.16.19s0,0,0,.07.22-.05.26-.05.07.06.19,0,.31,0,.22-.1a1.16,1.16,0,0,1-.16-.11.47.47,0,0,0-.23-.09s.21-.07.16-.07Zm-5.32-1c-.12.05-.08.07-.16.13s0,.07.14,0a1.07,1.07,0,0,0,.29-.1C28.17,19,28,18.9,27.79,19Zm.26.3c-.11,0-.08.1-.05.14s.11,0,.14,0,0,0,.13,0,.07-.05,0-.12S28.25,19.18,28.05,19.26Zm-.63,0c-.07,0-.07,0,0,.06a.4.4,0,0,0,.32,0c.09-.05.08,0,0-.06A.57.57,0,0,0,27.42,19.23Zm-1.06.13a1.55,1.55,0,0,1,.3,0c.09,0,.06.09-.11.1s0,.05.14,0,0-.1.14-.13.16,0,.27-.05-.06-.08-.2-.08h-.3a1.23,1.23,0,0,0-.32.07C26,19.34,26.24,19.37,26.36,19.36Zm.88,0c-.1,0-.34.05-.14.07s.19,0,.27,0S27.34,19.39,27.24,19.39Zm.7,0a.4.4,0,0,0-.26,0c-.11,0-.15.07-.08.1a.37.37,0,0,0,.18,0c.06,0,.06,0,0,0S28,19.45,27.94,19.43Zm.59-.17c-.11,0-.12,0-.13.06s0,0,.13,0a.62.62,0,0,0,.24-.07c.08,0,0-.14,0-.16l-.14.08S28.65,19.24,28.53,19.26Zm-8.47,6c0,.15-.14.22,0,.18s.21-.17.2-.06-.11.09-.07.2,0,.09.18.13,0,0,.08.13.07.13,0,.16-.18-.09-.19,0a.38.38,0,0,0,.06.17c0,.07,0,.11-.13.16s0,.07.07.07.27,0,.24,0-.13,0-.19.1-.32.21-.19.2.11,0,.5-.09a1.14,1.14,0,0,0,.37-.08c.26-.08.18-.1,0-.08s.09-.14.05-.28-.12,0-.18-.1S20.84,26,21,26s.11,0-.11-.16-.09-.11-.19-.23a.37.37,0,0,0-.27-.1.38.38,0,0,0,.12-.12c0-.09.05-.08.09-.18s0-.1-.16-.07-.15,0-.13,0,0-.06.1-.12.06-.09,0-.06a1,1,0,0,0-.2.05C20,25.08,20.12,25.17,20.06,25.31Zm-.27.35c-.18.07-.13.11-.1.14s.09,0-.08.07-.17.19-.08.21.07,0,0,.12-.15.29,0,.25.24-.14.33-.15.11-.09.11-.19-.06-.11,0-.2.08-.18-.06-.22S19.9,25.62,19.79,25.66ZM22,28s0,.08-.06.13,0,.08.06.13.05-.15.05-.24S22.05,28,22,28Zm0,.35c-.12.05-.13.09-.14.18s.09,0,.07.09,0,.12.12,0,.05-.13.07-.22S22.14,28.31,22,28.39Zm1.8.93c-.1,0-.14.05,0,.07a1.2,1.2,0,0,0,.32,0c.07,0,0,0-.07-.06S23.92,29.33,23.79,29.32Zm1,.05c-.14,0-.1.14.05.11s.09,0,.15-.09S24.92,29.4,24.77,29.37Zm-3.52-.78c-.12,0-.13.05,0,.07s.08,0,.13,0S21.3,28.58,21.25,28.59Zm-7-2.06a.87.87,0,0,0-.25.31.8.8,0,0,1-.18.25c-.1.1-.05.08.25.14s.27.1.34.08.09,0,.09.1.06,0,.09-.07a.57.57,0,0,0-.09-.37c-.06-.09-.08-.09-.17-.07s-.07,0-.1-.1-.09,0,0-.13S14.33,26.47,14.26,26.53Zm-9.19-.21a.5.5,0,0,0,.17.31c.08.05.06,0,0-.09s0-.11,0-.18S5.07,26.29,5.07,26.32Zm.5.52a.87.87,0,0,0,.19.17.58.58,0,0,0,.24.11c.11,0,.16,0,.09-.07S6.08,27,6,27s-.16,0-.22-.06S5.53,26.79,5.57,26.84ZM2.76,25.79c-.08,0-.12,0-.17,0s-.08.08,0,.13,0,0,.08,0,0-.06.13-.08.07-.05.07-.05A.12.12,0,0,1,2.76,25.79Zm0-.11c-.06,0-.07.06,0,.05s0-.05.09,0a.06.06,0,0,0,.06,0A.2.2,0,0,0,2.73,25.68Zm-1.59-.25c-.08,0-.15,0-.11,0a.37.37,0,0,0,.17.05c.05,0,.08,0,.06,0s0,0,0-.06S1.21,25.39,1.14,25.43Zm25.5,10.29c-.08.19-.27.09-.42.23s-.12.1,0,.29-.09.18-.14.4.06.19.12.38.09.14.2.11a.48.48,0,0,0,.18-.07,2.48,2.48,0,0,1,.1-.42,4.34,4.34,0,0,0,.14-.59c0-.17,0-.29.06-.24s0,0,0,0a.61.61,0,0,0-.11-.35C26.67,35.33,26.73,35.53,26.64,35.72Zm.13-12.95c-.12,0-.17.1-.09.13s.08,0,.23,0S26.89,22.74,26.77,22.77ZM29,20.62c0-.07-.08,0-.5.2s-.42,0-.82.33-.31.27-.33.46-.11.1-.15.27-.24.18-.14.32a.8.8,0,0,0,.45.27c.21.06.27,0,.22,0a.73.73,0,0,1-.17-.55c0-.29.14-.24.23-.35a2.76,2.76,0,0,1,.49-.47,4.82,4.82,0,0,1,.76-.28h0C29.25,20.61,29.07,20.68,29,20.62Zm-1.14,1.89c-.05,0-.08,0,0,.1s.17.15.14,0A.15.15,0,0,0,27.89,22.51Zm1.51-.86c-.07,0-.1-.06-.12,0s.08.12.17.13S29.47,21.68,29.4,21.65ZM13.54,27a.84.84,0,0,0-.27-.09c-.07,0,0,.07.12.13S13.6,27,13.54,27Zm-.25.42c0-.08,0,.1,0,.14s.12,0,.17,0,0,0-.06,0S13.29,27.44,13.29,27.37Zm30.19-2.9a.4.4,0,0,1-.21,0,.35.35,0,0,1-.05.15.08.08,0,0,0,0,.09l-.2-.07c-.07,0-.13,0-.18-.12s-.16-.08-.26-.08-.07-.13-.07-.13h-.06s0,.14-.12.18a1.15,1.15,0,0,1-.31.08s.15.1.18.19a.69.69,0,0,0,.09.17s0,0-.2,0-.17,0-.37.11a2.48,2.48,0,0,0-.48.25s0,0-.23,0-.2,0-.25.06,0-.1,0-.1a.35.35,0,0,0-.14,0c-.78.39-.24.37-.27.45l-.08.31c-.11.34-.19.16-.29.43-.31.85-.49-.13-.49-.36s0-.32.06-.36c.77-.35.07,0,.79-.53.24-.16.11-.26.16-.3a.3.3,0,0,1,.14-.06h-.13c-.13,0-.13,0-.23.12s-.18.13-.16.05,0-.17,0-.13-.11,0-.25.07a.7.7,0,0,0-.42.25c-.13.16-.06.14,0,.18s-.2,0-.32,0-.05,0,0-.06-.11,0-.26-.07-.09,0-.18.06-.09,0-.13,0l-.39,0c-.14,0-.13,0-.17.06s-.3.27-.42.4-.25.16-.38.28-.15.12,0,.13.11,0,.13.11.07.12.18.12.08,0,.1-.05,0-.18.06-.1a.41.41,0,0,1,.2.23c0,.1,0,.18-.06.35a2.78,2.78,0,0,1-.13.55c-.06.13-.11.22-.19.36a2.08,2.08,0,0,1-.5.52c-.08,0-.13,0-.17,0s-.07-.06-.16,0a.39.39,0,0,0-.16.25c0,.13-.11.13-.19.22s-.1.07,0,.18.15.22.16.33a.79.79,0,0,1-.08.32c0,.07-.22.1-.22.07a2.74,2.74,0,0,0,0-.29c0-.09-.07-.09,0-.12s.12-.07,0-.14-.12,0-.15-.09,0-.14,0-.17a.27.27,0,0,0-.17-.07c-.11,0-.14.1-.16,0s0-.1,0-.14-.09,0-.21.09a.86.86,0,0,1-.25.13c-.11,0-.11.07-.08.1s.11.19.18.2.12,0,.23,0,.14,0,.11.06-.11.08-.24.21-.09.11-.05.16a.91.91,0,0,1,.16.23c0,.1,0,.14,0,.2a.32.32,0,0,0,.08.25c.09.09,0,.06,0,.09s-.16.31-.23.45-.07.14-.29.3a1,1,0,0,1-.45.19,1.68,1.68,0,0,0-.28.08c-.07,0,0,.08,0,.11s-.07,0-.05,0,0-.09,0-.1a.2.2,0,0,0-.23.05c-.1.09-.22.1-.26.22s0,.08,0,.13a2.37,2.37,0,0,1,.31.36.88.88,0,0,1,.07.32c0,.12-.25.34-.36.41s-.14.14-.12,0,0-.18-.13-.27a1.08,1.08,0,0,0-.36-.16c-.05,0,0-.08,0-.08s-.1,0-.09.1-.07.07-.09.18,0,.23,0,.22.06.1.12.22,0,.05.17.16.1.09.14.2a.71.71,0,0,0,.09.28c.06.1.07.12,0,.06a.63.63,0,0,1-.25-.19,2.75,2.75,0,0,1-.1-.34c0-.09-.21-.19-.28-.25s0-.12,0-.26a1,1,0,0,0,0-.37,2.9,2.9,0,0,0-.12-.42c0-.09,0-.08-.07,0s-.1.11-.15.11-.13,0-.12,0,.06-.16,0-.21a.53.53,0,0,0-.14-.25.58.58,0,0,1-.2-.25c0-.13-.06-.09-.15,0a1,1,0,0,1-.39.08c-.1,0,0,0,0,.1s-.14.11-.38.35-.26.24-.32.27-.1,0-.1.11a1.92,1.92,0,0,1,0,.24.63.63,0,0,1-.06.18,1,1,0,0,0-.07.21c0,.05-.06.11-.13.17s-.08,0-.11,0-.22-.38-.36-.66a.88.88,0,0,1-.13-.42c0-.08,0-.58,0-.61s-.07.05-.09.09,0,.09-.1.1-.1,0-.18-.07-.11-.12-.1-.12a.28.28,0,0,0,.16,0c.05,0,0-.05,0-.05H29.2c-.07,0,0,0-.13-.05S29,31,29,31l-.05-.12s0,0,0-.07-.06,0-.15,0-.08,0-.19,0a.46.46,0,0,1-.26,0,.85.85,0,0,1-.29-.08.79.79,0,0,0-.17,0c-.1,0-.08-.07-.1-.11s-.07-.05-.19,0a.44.44,0,0,1-.21,0c-.07,0-.07-.05-.13-.11s0,0-.08,0a.31.31,0,0,1-.11-.15.38.38,0,0,0-.06-.14s0,0-.15,0-.06,0-.07,0a.49.49,0,0,0-.08.1s0,.09.07.14,0,.05.07.12,0,.08.1.18a1.89,1.89,0,0,0,.1.17s0,0,0,0a.55.55,0,0,0,0-.13.64.64,0,0,1,0,.12c0,.08,0,.08,0,.13s0,0,.08,0a1,1,0,0,0,.24,0c.09,0,.14-.11.18-.13s.05-.12.08-.11,0,.11,0,.17,0,0,.11.07l.15.07c.07,0,0,0,.06.09s0,0,.07,0,0,0,0,.09,0,.08-.09.14-.06.05-.06,0,0,0,0,0a.46.46,0,0,0-.05.16c0,.09,0,.06-.08.1a1,1,0,0,0-.21.1c-.05,0-.05.08-.07.11s-.06,0-.13,0a.29.29,0,0,0-.12.07c-.06,0,0,0-.08.07a2.22,2.22,0,0,1-.3.11c-.07,0-.06,0-.07.05s0,0-.12,0a1.43,1.43,0,0,0-.26.06c-.06,0-.14.08-.2.07s0,0-.06-.06a.69.69,0,0,1,0-.18.8.8,0,0,0-.09-.3l-.11-.18a.62.62,0,0,0-.14-.19l-.09-.06s0-.11,0-.19a.61.61,0,0,0-.07-.18.56.56,0,0,1-.14-.18l-.13-.23c-.07-.14-.1-.15-.14-.24s0-.08,0-.13-.06.09-.09.12-.06,0-.09-.07-.05-.15-.07-.12,0,.06,0,.15a1.09,1.09,0,0,0,.08.15c0,.08.15.28.19.37s0,0,.07.17a.31.31,0,0,0,.12.19c.05,0,0,0,.07.11a1,1,0,0,1,0,.24c0,.06,0,.08.1.14s0,0,.06.09a1.42,1.42,0,0,1,.08.18c0,.06,0,.1.09.12l.11,0c.06,0,0,0,.07.07a1.79,1.79,0,0,1,.15.14c0,.07,0,.05,0,.12s0,0,0,.07l.17.12c.09.06,0,0,.1,0a.65.65,0,0,0,.18,0l.29-.07.26-.06c.05,0,.05.05,0,.13s-.06.17-.09.24-.05.07-.07.13-.2.3-.23.37a1,1,0,0,1-.13.2c-.06.06-.22.17-.29.23s-.06.06-.12.13-.23.27-.27.34a1.53,1.53,0,0,0-.11.16c0,.07-.13.17-.14.22s-.06,0,0,.1.07.05.08.1,0,.12,0,.22,0,0,.08.11a.45.45,0,0,1,.06.24,1.47,1.47,0,0,1,0,.31,1.18,1.18,0,0,1-.07.2c0,.06-.17.11-.26.15s-.08,0-.12.07a1.33,1.33,0,0,0-.19.21c0,.07-.06.07-.05.11l.09.19c0,.08,0,.08,0,.15s0,.06,0,.15-.12.09-.24.14-.07,0-.09.08,0,.19,0,.27,0,0-.11.14l-.16.25a.42.42,0,0,1-.15.17c-.09.07-.16.08-.2.17s-.08,0-.27.08a.55.55,0,0,1-.24,0l-.34.05c-.09,0-.08,0-.14-.06s-.07-.06-.09-.12,0-.06,0-.16a.23.23,0,0,0,0-.15.84.84,0,0,1-.07-.16,1.09,1.09,0,0,0-.1-.19c-.05-.06-.06,0-.1-.08a.22.22,0,0,1-.05-.14c0-.05,0-.19,0-.33s0-.07,0-.13a1.71,1.71,0,0,0-.09-.22,1.18,1.18,0,0,0-.08-.16,1.81,1.81,0,0,1-.1-.17c0-.09,0-.05,0-.08s0-.1,0-.16a1.15,1.15,0,0,1,0-.22c0-.09,0-.09,0-.15s.07-.12.1-.19,0-.07,0-.16a.41.41,0,0,0,0-.16c0-.07,0-.16-.08-.28a.47.47,0,0,1,0-.16,2.09,2.09,0,0,0-.05-.21c0-.07,0,0-.09-.08s0,0-.06-.07l-.08-.11a.44.44,0,0,1-.08-.11c0-.05,0,0,0-.11a2.47,2.47,0,0,1,.05-.38c0-.1,0-.1,0-.14s-.07-.11-.1-.12-.11,0-.22,0-.1,0-.15-.08l-.13-.15s-.06,0-.25,0a.7.7,0,0,0-.2,0c-.12,0-.17.09-.27.12s-.12,0-.29,0a.51.51,0,0,0-.33.07.16.16,0,0,1-.19,0,1.17,1.17,0,0,0-.2-.12c-.09,0-.07-.07-.17-.12s-.06,0-.14-.12-.08-.15-.14-.22a1.92,1.92,0,0,0-.17-.26c-.07-.08-.14-.24-.18-.29s-.06,0-.06-.08.07-.16.1-.23,0-.06.05-.1a.57.57,0,0,0-.05-.24c0-.07-.06-.22-.08-.29s0-.07,0-.11a2.37,2.37,0,0,0,.16-.24c.06-.12.1-.18.13-.23a1.78,1.78,0,0,1,.17-.27,1.31,1.31,0,0,1,.24-.17c.06,0,.1-.05.11-.07s0-.23.05-.32,0-.14.06-.17l.22-.13c.06,0,.06-.07.09-.14s0-.14.08-.17,0,0,.09,0,.06,0,.09,0,0,0,.11,0a.18.18,0,0,1,.11,0s0,0,.12,0a1.53,1.53,0,0,1,.34-.16l.3-.09c.07,0,0,0,.11,0s.07,0,.09,0,.06-.08.09-.08l.15,0a.23.23,0,0,0,.15,0l.08,0,.13,0s0,0,0,0l-.05.09c0,.06,0,0,0,.09s0,.06,0,.1-.06.09-.1.13,0,.05.07.11l.17.09c.11,0,.11,0,.23.06s.11,0,.15.09.05.09.12.12a.83.83,0,0,1,.2.05.27.27,0,0,0,.13.07c.06,0,.06,0,.09,0s0-.08,0-.1,0,0,0-.07l.07-.12s.06,0,.15,0,.15,0,.17,0,0,0,.08,0l.13.05c.06,0,0,.06.06.05h.14a.68.68,0,0,0,.26.07.34.34,0,0,0,.17,0s.09-.1.13,0,.11.07.22.06S25,30,25,30a1,1,0,0,0,.11-.21,2.22,2.22,0,0,0,.1-.31.31.31,0,0,0,0-.17.3.3,0,0,1,0-.12c0-.05-.06,0-.09,0s0,0-.06,0,0,0-.07,0,0,.07-.12.07-.09,0-.12-.05a.25.25,0,0,0-.14-.06c-.05,0-.05,0-.06,0s0,.05,0,.06a.29.29,0,0,1-.17,0,.39.39,0,0,1-.15-.11c-.07-.06-.06-.06-.09-.16a.52.52,0,0,1,0-.21s0,0,0,0-.08,0-.05,0a.11.11,0,0,1,.1-.08l.15,0a.29.29,0,0,0,.14,0s.07,0,.05,0-.1,0-.09,0,0,0,.06,0h.16c.05,0,.08,0,.1,0a.24.24,0,0,1,.08-.1s.08,0,.19,0,.09,0,.12,0,.06,0,.1,0,0,0,.05,0l.18.05c.08,0,0,0,.12,0h.17a.48.48,0,0,0,.16-.08c.05,0,0-.12,0-.18s-.1-.1-.14-.13l-.16-.16-.15-.07s-.13-.07-.14-.1,0,0,.09-.06.05,0,.06-.06,0,0,.08-.06-.07-.07-.08-.09,0,0,.1,0a.08.08,0,0,0,.07-.07s0,0-.07,0a1.36,1.36,0,0,0-.27.06c-.12,0-.06,0-.13.08s-.08,0-.07.06,0,.06.09.1,0,0,.06,0,.07,0,0,0,0,0-.07,0-.05,0-.1.06l-.12.05s-.07,0-.06-.08,0,0-.07,0l-.06,0a.25.25,0,0,0,.09,0,.18.18,0,0,0,.08-.09c0-.06,0,0-.09,0l-.09,0a.11.11,0,0,1-.06,0h.06s0,0,0,0,0,0,0,0h-.09a.34.34,0,0,0-.1,0c-.05,0,0,0-.07.05s0,0,0,.06,0,0,0,.05a.34.34,0,0,0,0,.11s0,0,0,.07,0,0-.06,0,0,0,0,.06a.44.44,0,0,1,0,.1c0,.05,0,.05,0,.08s0,0-.05.07v.11c0,.07,0,0,.08.11s.08,0,.06.08,0,0-.07,0a.12.12,0,0,0-.12.05c-.05,0-.06.07-.08.08s0,0,0-.05-.11,0-.19-.05l-.11,0s0,0-.12,0-.06.07,0,.12.06.06,0,.19.06.07.09.15,0,.07,0,.08a.22.22,0,0,0-.06.13c0,.07,0,.08,0,.07s0,0-.08,0-.06,0-.07,0-.05-.08,0-.15.05-.08,0-.11,0,0-.07-.12a.47.47,0,0,0-.1-.16c-.05-.06-.05,0,0-.11s0-.16,0-.21a1.46,1.46,0,0,0-.3-.24c-.11-.06-.14,0-.19-.11s-.07-.2-.16-.26,0-.06-.13,0-.08,0-.07.06a.38.38,0,0,1,0,.12c0,.07,0,.05.06.1s.05,0,.09.13a.63.63,0,0,0,.08.15.21.21,0,0,0,.14.09c.08,0,.07,0,.09,0s-.06,0,0,0a.34.34,0,0,0,.1.08.52.52,0,0,1,.17.13s.08.16,0,.07-.1-.05-.12,0,0,.12,0,.17-.05,0-.08.07,0,.08-.08.11,0,0,0,0,0,0-.05.07,0,.06,0,.13,0,.06,0,.06-.05-.07-.11-.11-.1,0-.15-.05,0,0,.15-.06.14,0,.18-.06,0,0,.07-.1,0-.08,0-.15a.21.21,0,0,0-.1-.12l-.1-.1a.22.22,0,0,0-.14-.06c-.07,0-.06-.08-.09-.1s-.08-.06-.16-.14,0-.13-.09-.2-.07-.11-.16-.11-.14,0-.23.13-.06.12-.16.06-.13-.06-.2,0-.08.11-.08.23-.08.06-.15.1-.12.11-.23.29,0,.1,0,.16,0,.12-.09.2-.05,0-.1.06a.28.28,0,0,1-.27.1c-.13,0-.09,0-.17.05s-.13.05-.11,0,0-.08-.15-.07-.22.05-.2,0a.51.51,0,0,0,0-.15c0-.08,0-.11,0-.11s-.08,0,0-.15a.64.64,0,0,0,0-.28c0-.09,0-.21,0-.26s0-.11,0-.14-.06-.07,0-.07l.22,0a2.44,2.44,0,0,0,.29,0l.34.05c.14,0,.13,0,.12-.21s0-.29,0-.34-.09,0-.13-.09,0-.13-.11-.16-.2,0-.15,0,.07,0,0-.07-.07-.08,0-.09h.16a0,0,0,0,0,.07,0c.06,0,.14-.05.12-.09s0-.09,0-.09a.19.19,0,0,0,.16.06c.13,0,.12,0,.11-.07s.09-.06.16-.1,0-.09,0-.14.09-.06.23-.07.11,0,.1-.05,0-.08,0-.17,0-.11.06-.15.05,0,.19,0,0,0,.08-.05L22,26s0,0,0-.07a1,1,0,0,1-.09-.37c0-.28,0-.28.14-.33s.14,0,.13.12-.09.16-.11.27a.38.38,0,0,0,.07.3c.07.12.06.06.22.06s.12,0,.22.07.07-.06.17-.09.08,0,.32,0h.12s0,0,0,0,.07-.09.15-.1.13,0,.13-.09-.05-.1,0-.2a1,1,0,0,0,0-.12c0-.07,0-.08.09-.11s0,.09.15.11.1.05.12,0,.09-.21,0-.21-.07,0-.13-.09-.09-.1-.05-.1a1.5,1.5,0,0,1,.34,0c.19,0,.24,0,.25,0s0,0,0-.07.27,0,.24,0a.61.61,0,0,0-.34-.06l-.46,0a.3.3,0,0,1-.14-.06s-.09,0-.09-.14,0-.14,0-.25.11-.18.23-.29.09-.19.16-.2.1-.05.07-.08a1.06,1.06,0,0,0-.23-.17c-.06,0-.15-.08-.25.08s0,.18,0,.27-.14.15-.25.23-.16.06-.19.26-.07.21.06.28.15.1.09.16-.18.06-.26.2-.05.21-.08.27-.12.1-.15.16,0,.18-.15.16-.05-.17-.1-.25l-.16-.24c-.06-.1,0-.19-.07-.25a.25.25,0,0,1-.07-.15l0,.05a.47.47,0,0,1-.13.22.37.37,0,0,1-.38.12c-.09,0-.07-.12-.07-.23s0-.24,0-.4.07-.15.25-.26.19-.1.23-.17a1.47,1.47,0,0,1,.26-.23,2,2,0,0,0,.27-.48,2.91,2.91,0,0,1,.32-.45,1.35,1.35,0,0,1,.63-.46c.29-.12.24-.13.3-.23s.1,0,.21-.06.09,0,0,.11-.16.22-.07.14.17-.19.32-.18.08,0,.22.06.17.07.09.12a.41.41,0,0,1-.21,0,.22.22,0,0,0,.17.12c.13,0,.21-.1.29-.06s.11.08,0,.07-.16.06,0,.11a1.06,1.06,0,0,0,.35.08c.19,0,.27.16.42.22s.31,0,.26.14,0,.26-.21.32-.25,0-.46-.08l-.36-.13.15.16c.1.09.11.17.1.33s-.05.21.11.29.14,0,.2,0,.13,0,.11-.05a.27.27,0,0,0-.09-.1c-.06,0-.06-.09,0-.11s.1,0,.22,0,0,0,.06-.11.07-.16.21-.21.29,0,.33,0a.16.16,0,0,0,0-.22c-.08-.09-.14-.12-.09-.17s.14-.16.19-.09.15.14,0,.12-.05.22.09.2.12-.05.22-.1a4.91,4.91,0,0,1,.47-.27c.15-.05.18,0,.24,0s.06.07.22,0,.21-.07.36-.1,0,.06.06.08.08,0,.13,0,.22-.09.14-.15l-.13-.1a.21.21,0,0,1,.2-.11,1.39,1.39,0,0,1,.51.24,1.75,1.75,0,0,1,.31.3.33.33,0,0,0,0-.28c-.05-.17-.18-.13-.18-.3s-.12-.12-.08-.23.16-.17.19-.31.06-.28.17-.28a3.19,3.19,0,0,1,.34,0,.89.89,0,0,1-.09.33c-.09.21,0,.23,0,.47s0,.28,0,.34.17.13.13.23-.07.18-.22.24-.35,0-.28.07a.55.55,0,0,0,.27.1c.1,0,0,0,.13-.07s.27-.2.27-.26-.11-.16,0-.21.09-.12.2-.06.21.28.21.27a.6.6,0,0,0-.15-.34c-.12-.13-.34,0-.34-.12s.06-.26.05-.38-.06-.24,0-.35a.32.32,0,0,0,.08-.18.54.54,0,0,1,0,.22c0,.12,0,.2.07.2s.32,0,.18,0-.18-.08,0-.16.13,0,.34,0,.26.09.32.08.06,0,0-.07a.27.27,0,0,0-.12-.14c-.07,0-.11,0-.13-.05s-.06-.22-.08-.28.05,0,.16,0l.65,0c.23,0,0-.24,0-.41s.43-.17.65-.2a7.58,7.58,0,0,0,.88-.12c.4-.09.14-.08.2-.19a.27.27,0,0,1,.28-.14c.12,0,.23,0,.19,0s-.18.08,0,.13.15,0,0,.08,0,.11.2.11.09,0,.05-.09,0-.05.21,0a.54.54,0,0,1,.34.15c.1.08.12.06.15.19s0,.1-.15.21a4.3,4.3,0,0,1-.45.25c-.22.13-.17.2-.28.29s-.09.06.16,0a1.8,1.8,0,0,1,.51-.09c.13,0,.19.06.29.06a2.74,2.74,0,0,0,.29,0c.31,0,.26,0,.15.09s0,.11.16.11a2.91,2.91,0,0,0,.42,0c.13,0,0-.11.17-.12l.35,0c.16,0,.12.07.17.12s.13.1.08.21-.08.12-.05.27.11.18.21.21.1-.14.19-.2.11.11.22.09a.57.57,0,0,1,.32,0,.63.63,0,0,0,.31,0c.13,0,.09-.08,0-.16s0-.07,0-.15.13,0,.4,0,.19.07.34.11a1.52,1.52,0,0,1,.33.13c.24.11.19.23.3.3s.11,0,.33,0,.21,0,.44.08.17.14.17.21-.06.11.08.14a.56.56,0,0,0,.33,0c.13,0,0,0,.29,0s.19,0,.27,0,.1.17.24.16.12,0,.07-.13-.09-.13,0-.13.24,0,.54.09.31.1.56.25a4.8,4.8,0,0,1,.49.3.29.29,0,0,1,.08.07s0,0,.1,0l.32.14a1.48,1.48,0,0,1,.31.18S43.61,24.46,43.48,24.47ZM27.36,27.68s0,0,.08-.05-.05,0-.1,0-.08,0-.06-.11,0-.07-.06-.16a.1.1,0,0,0-.1,0c-.07,0-.11,0-.18,0s-.17,0-.22.13-.1,0-.12.14-.17.14-.17.14l.11.11c0,.06,0,0,.06.2s.07.16.14.19a.84.84,0,0,1,.15.08s-.05,0-.05.06-.1.16-.09.3-.13.27,0,.28.07.06.19.09a1.19,1.19,0,0,0,.37.06c.17,0,.08-.07.05-.17a2.19,2.19,0,0,1,0-.27c0-.1,0-.07-.08-.14s0-.11.1-.11.09,0,.05-.07,0-.1-.08-.13-.07.1-.07.1,0,0,0-.16,0-.07,0-.1-.07,0-.12-.08,0-.07-.08-.18,0-.05.05-.05,0,0,0-.05-.06-.09,0-.08l.26,0S27.36,27.68,27.36,27.68Zm-12.9-4.86c0,.05.06.12.12.1s.08,0,.12,0,0-.07,0-.11,0-.06,0-.06S14.5,22.76,14.46,22.82Zm17.09-3.48c-.09,0-.2,0-.11,0s0,.17.22.09l.24-.13c.12,0,.05,0-.09-.06S31.64,19.33,31.55,19.34Z"/></g><path className="cls-7" d="M15.12,24.07a.74.74,0,0,1,.39,0l.24.07a.71.71,0,0,1,.46.33.72.72,0,0,1,0,.58l-.22.76-3-.84.22-.72a.75.75,0,0,1,.34-.46.76.76,0,0,1,.58-.05l.15,0a.61.61,0,0,1,.48.47A.61.61,0,0,1,15.12,24.07Zm-1.51.58.81.22.06-.2a.33.33,0,0,0,0-.26.31.31,0,0,0-.21-.15L14,24.2a.28.28,0,0,0-.22,0,.29.29,0,0,0-.14.18Zm1.72-.13a.32.32,0,0,0-.26,0,.39.39,0,0,0-.16.22l-.07.24.9.25.08-.28a.3.3,0,0,0,0-.23.31.31,0,0,0-.18-.13Z"/><path className="cls-8" d="M15.15,20.15l2.72,1.44-.24.42-1.86-1,1.64,1.38-.16.29-2.08-.6,1.86,1-.23.41L14.09,22l.33-.59,1.94.57-1.54-1.27Z"/><path className="cls-9" d="M17.47,17.42l.36-.33L20,19.25l-.35.33Z"/><path className="cls-10" d="M19.07,16l.44-.3,1.7,1.32L20,15.4l.4-.26,1.76,2.46-.42.29L20.1,16.66l1.13,1.58-.39.27Z"/><path className="cls-11" d="M21.74,14.41l1.42-.62.18.39-.49.22,1.09,2.34-.44.2-1.09-2.35-.49.21Z"/><path className="cls-12" d="M24.58,13.32,25.92,13l.11.42-.87.22.22.81.69-.18.11.42-.69.17.23.85.87-.21.11.41-1.34.34Z"/><path className="cls-13" d="M28.77,15.65l-.45-1.21-.25,0,.1,1.24-.49,0-.24-3,.76-.06a.79.79,0,0,1,.57.15.7.7,0,0,1,.25.51l0,.33A.76.76,0,0,1,29,14a.58.58,0,0,1-.23.26l.52,1.31ZM28,14l.26,0a.26.26,0,0,0,.21-.09.24.24,0,0,0,.06-.21l0-.34a.23.23,0,0,0-.09-.2.29.29,0,0,0-.23-.06l-.25,0Z"/><path className="cls-14" d="M30.59,12.64l.53.06.4,2.07.22-2,.48.05-.33,3-.51-.05-.43-2-.21,1.91-.48,0Z"/><path className="cls-15" d="M34.09,15.65l-.5-.14-.3.6L32.82,16l1.4-2.73.63.18-.38,3L34,16.32Zm.07-.44L34.34,14l-.56,1.14Z"/><path className="cls-16" d="M36.42,14l1.4.66-.2.39-.48-.23L36,17.12l-.44-.2L36.7,14.6l-.48-.22Z"/><path className="cls-17" d="M39.06,15.4l.4.27-1.74,2.47-.41-.26Z"/><path className="cls-18" d="M38.88,18.82a.66.66,0,0,1,.22-.52l1.16-1.19a.7.7,0,0,1,.52-.24.8.8,0,0,1,.56.23.74.74,0,0,1,.27.52.65.65,0,0,1-.22.52l-1.15,1.2a.72.72,0,0,1-.53.24.84.84,0,0,1-.56-.23A.8.8,0,0,1,38.88,18.82Zm.79.3a.31.31,0,0,0,.21-.11L41,17.82a.29.29,0,0,0,.1-.21.27.27,0,0,0-.11-.2.29.29,0,0,0-.21-.09.31.31,0,0,0-.21.11l-1.16,1.19a.34.34,0,0,0-.1.21.29.29,0,0,0,.11.2A.3.3,0,0,0,39.67,19.12Z"/><path className="cls-19" d="M43,18.86l.31.42L42,20.94l1.69-1.17.28.38L41.4,21.89l-.3-.4,1.24-1.63L40.73,21l-.28-.38Z"/><path className="cls-20" d="M43,23.39l-.22-.46-.66.18-.21-.43,3-.77.27.58-2.6,1.71-.2-.44Zm.38-.24,1.1-.69-1.26.34Z"/><path className="cls-21" d="M45.88,24.36l.11.46-2.57.61.2.82-.43.1-.32-1.27Z"/><polygon className="cls-6" points="13.39 32.45 14.08 33.61 15.4 33.31 14.51 34.33 15.2 35.5 13.96 34.96 13.06 35.98 13.19 34.63 11.94 34.09 13.27 33.79 13.39 32.45"/><polygon className="cls-6" points="14.56 36.21 15.15 36.82 15.91 36.45 15.51 37.2 16.1 37.8 15.26 37.66 14.86 38.41 14.75 37.56 13.91 37.42 14.68 37.05 14.56 36.21"/><polygon className="cls-6" points="13.51 29.74 13.83 30.53 14.67 30.46 14.03 31.01 14.35 31.8 13.63 31.35 12.98 31.9 13.18 31.08 12.46 30.63 13.31 30.57 13.51 29.74"/><polygon className="cls-6" points="27.97 51.33 29.66 51.43 30.27 49.85 30.7 51.48 32.39 51.58 30.97 52.5 31.4 54.13 30.09 53.06 28.67 53.98 29.28 52.4 27.97 51.33"/><polygon className="cls-6" points="22.89 50.22 24.07 50.56 24.76 49.54 24.8 50.77 25.99 51.1 24.83 51.53 24.88 52.76 24.12 51.79 22.96 52.21 23.65 51.19 22.89 50.22"/><polygon className="cls-6" points="34.05 51.21 35.2 50.78 35.15 49.55 35.91 50.51 37.06 50.08 36.38 51.11 37.15 52.07 35.96 51.74 35.28 52.77 35.23 51.54 34.05 51.21"/><polygon className="cls-6" points="45.53 32.58 44.84 33.75 43.52 33.45 44.41 34.47 43.73 35.63 44.97 35.1 45.86 36.11 45.74 34.76 46.98 34.23 45.66 33.93 45.53 32.58"/><polygon className="cls-6" points="44.37 36.34 43.78 36.95 43.02 36.58 43.41 37.33 42.83 37.94 43.66 37.79 44.06 38.54 44.18 37.7 45.01 37.55 44.25 37.18 44.37 36.34"/><polygon className="cls-6" points="45.42 29.88 45.1 30.66 44.25 30.6 44.9 31.15 44.58 31.93 45.3 31.49 45.94 32.04 45.74 31.21 46.46 30.77 45.62 30.7 45.42 29.88"/><path className="cls-22" d="M18.39,43.47a.83.83,0,0,0,0,.15.4.4,0,0,0,0,.15.37.37,0,0,0,.13.15.32.32,0,0,0,.22.1.43.43,0,0,0,.17,0l.2-.15,1.34-1-1,1.46a.28.28,0,0,0-.06.22.29.29,0,0,0,.13.18.32.32,0,0,0,.22.06.28.28,0,0,0,.19-.14L21,42.85a.24.24,0,0,0,0-.24.41.41,0,0,0-.17-.18l-.14-.1a1.07,1.07,0,0,0-.19-.11.22.22,0,0,0-.14,0,1.57,1.57,0,0,0-.2.13L19,43.24l.55-1.36a2.06,2.06,0,0,0,.09-.22.19.19,0,0,0,0-.13,1,1,0,0,0-.15-.17l-.13-.11a.44.44,0,0,0-.22-.12c-.08,0-.15,0-.23.1l-1.38,1.5a.25.25,0,0,0-.09.21.31.31,0,0,0,.11.2.32.32,0,0,0,.21.08.27.27,0,0,0,.2-.11l1.16-1.34c-.24.51-.48,1-.69,1.55Z"/><path className="cls-22" d="M21.2,45.57a.28.28,0,0,0,.16.18.29.29,0,0,0,.24,0,.31.31,0,0,0,.19-.17l.89-1.82a.34.34,0,0,0,0-.25.26.26,0,0,0-.14-.15.26.26,0,0,0-.21,0,.35.35,0,0,0-.18.18l-1,1.78A.29.29,0,0,0,21.2,45.57Z"/><path className="cls-22" d="M25.57,46.12a.76.76,0,0,0-.15-.28,2.45,2.45,0,0,0-.29-.23l-.39-.23-.24-.15-.14-.11a.38.38,0,0,1-.09-.13.17.17,0,0,1,0-.14.26.26,0,0,1,.2-.16.65.65,0,0,1,.36,0,.6.6,0,0,1,.29.18.67.67,0,0,1,.12.27.8.8,0,0,0,.06.17.24.24,0,0,0,.14.08.25.25,0,0,0,.19,0,.27.27,0,0,0,.11-.15.54.54,0,0,0,0-.22.77.77,0,0,0-.12-.24,1.39,1.39,0,0,0-.25-.23,2.16,2.16,0,0,0-.4-.18,1.77,1.77,0,0,0-.54-.08.73.73,0,0,0-.42.11.64.64,0,0,0-.25.31.59.59,0,0,0,0,.39.89.89,0,0,0,.23.34,2.66,2.66,0,0,0,.45.31l.34.2a.82.82,0,0,1,.19.18.28.28,0,0,1,0,.22.32.32,0,0,1-.24.22.83.83,0,0,1-.46,0,.71.71,0,0,1-.29-.15.41.41,0,0,1-.14-.19A.85.85,0,0,1,23.8,46a.48.48,0,0,0-.05-.18.26.26,0,0,0-.14-.11.23.23,0,0,0-.2,0,.18.18,0,0,0-.13.12.55.55,0,0,0,0,.36.92.92,0,0,0,.22.38,1.52,1.52,0,0,0,.68.38,1.66,1.66,0,0,0,.67.09,1,1,0,0,0,.49-.17.63.63,0,0,0,.23-.38A.62.62,0,0,0,25.57,46.12Z"/><path className="cls-22" d="M29.12,45.49a.22.22,0,0,0,.08-.15.19.19,0,0,0-.07-.16.29.29,0,0,0-.21-.06,16.43,16.43,0,0,1-1.72-.18A.34.34,0,0,0,27,45a.21.21,0,0,0-.1.15.19.19,0,0,0,0,.16.34.34,0,0,0,.2.1l.61.08-.22,1.85a.32.32,0,0,0,.06.25.31.31,0,0,0,.22.11A.3.3,0,0,0,28,47.6a.34.34,0,0,0,.11-.23l.15-1.87.61,0A.34.34,0,0,0,29.12,45.49Z"/><path className="cls-22" d="M32.42,44.91a.3.3,0,0,0-.21,0A.25.25,0,0,0,32,45a.36.36,0,0,0,0,.24l.3,2a.3.3,0,0,0,.12.23.49.49,0,0,0,.31,0q.75-.13,1.5-.33a.42.42,0,0,0,.21-.12.16.16,0,0,0,0-.16.2.2,0,0,0-.12-.13.33.33,0,0,0-.24,0c-.4.11-.82.19-1.23.28l-.34-1.85A.36.36,0,0,0,32.42,44.91Z"/><path className="cls-22" d="M35,45a.17.17,0,0,0,0,.14.15.15,0,0,0,.1.09.23.23,0,0,0,.18,0l.07,0,.32.86a1.05,1.05,0,0,0,.16.32.36.36,0,0,0,.25.13.77.77,0,0,0,.41-.08,1.14,1.14,0,0,0,.39-.23.2.2,0,0,0,.06-.22.14.14,0,0,0-.09-.08.17.17,0,0,0-.14,0l-.12.06-.12.07a.2.2,0,0,1-.13,0,.16.16,0,0,1-.09-.07l-.07-.16L35.79,45l.09,0a.63.63,0,0,0,.21-.13.14.14,0,0,0,0-.16.2.2,0,0,0-.11-.09.27.27,0,0,0-.17,0l-.18.07-.12-.3-.08-.17a.31.31,0,0,0-.11-.08.23.23,0,0,0-.18,0,.26.26,0,0,0-.11.07.31.31,0,0,0-.05.1.25.25,0,0,0,0,.12l0,.17.1.27-.05,0A.29.29,0,0,0,35,45Z"/><path className="cls-22" d="M39.38,44.8a.32.32,0,0,0,.21,0,.27.27,0,0,0,.12-.17.27.27,0,0,0-.05-.22l-1.19-1.74a.29.29,0,0,0-.17-.13.2.2,0,0,0-.18,0,.2.2,0,0,0-.11.15.38.38,0,0,0,.07.23l.38.59a1,1,0,0,0-.37,0,1.17,1.17,0,0,0-.37.13.93.93,0,0,0-.43.53,1,1,0,0,0,.1.74,1.28,1.28,0,0,0,.24.32.8.8,0,0,0,.32.19.77.77,0,0,0,.37,0,1,1,0,0,0,.37-.13,1.08,1.08,0,0,0,.24-.18.86.86,0,0,0,.15-.22,1.51,1.51,0,0,0,.1-.28l0,0A.25.25,0,0,0,39.38,44.8Zm-1.59-.47a.5.5,0,0,1,.05-.28.52.52,0,0,1,.19-.2.59.59,0,0,1,.26-.07.56.56,0,0,1,.27.08.69.69,0,0,1,.24.24.75.75,0,0,1,.12.32.43.43,0,0,1-.06.28.55.55,0,0,1-.2.2.56.56,0,0,1-.27.08.57.57,0,0,1-.28-.08.82.82,0,0,1-.22-.26A.8.8,0,0,1,37.79,44.33Z"/><path className="cls-22" d="M41.41,43.28a.23.23,0,0,0,0-.21.28.28,0,0,0-.2-.08.33.33,0,0,0-.22.09.37.37,0,0,0-.12.2.24.24,0,0,0,0,.2.25.25,0,0,0,.2.09.47.47,0,0,0,.22-.09A.39.39,0,0,0,41.41,43.28Z"/><path className="cls-22" d="M22.48,41.82V40.14h1.25v.28h-.91v.37h.85v.29h-.85v.46h.94v.28Z"/><path className="cls-22" d="M24.41,41.47l.32,0a.24.24,0,0,0,.08.15.32.32,0,0,0,.18,0,.34.34,0,0,0,.19,0,.1.1,0,0,0,0-.09.14.14,0,0,0,0-.06.32.32,0,0,0-.11,0,1.67,1.67,0,0,1-.49-.16.31.31,0,0,1-.15-.27.32.32,0,0,1,.13-.27.57.57,0,0,1,.38-.11.74.74,0,0,1,.38.08.44.44,0,0,1,.16.25l-.3.05a.21.21,0,0,0-.07-.11.38.38,0,0,0-.34,0,.08.08,0,0,0,0,.07.05.05,0,0,0,0,.05.74.74,0,0,0,.3.09.77.77,0,0,1,.36.15.3.3,0,0,1,.11.24.38.38,0,0,1-.14.29.66.66,0,0,1-.42.12.7.7,0,0,1-.39-.1A.46.46,0,0,1,24.41,41.47Z"/><path className="cls-22" d="M26.86,40.6v.26h-.22v.66l0,0,.06,0,.13,0,0,.25a.66.66,0,0,1-.25.05.41.41,0,0,1-.16,0,.21.21,0,0,1-.1-.08.33.33,0,0,1-.05-.12s0-.12,0-.23v-.53h-.15V40.6h.15v-.24l.33-.19v.43Z"/><path className="cls-22" d="M28.67,41.82h-.3v-.18a.55.55,0,0,1-.18.16.46.46,0,0,1-.2.05.48.48,0,0,1-.36-.17.7.7,0,0,1-.15-.47.69.69,0,0,1,.15-.48.48.48,0,0,1,.36-.16.48.48,0,0,1,.36.17v-.6h.32Zm-.86-.64a.69.69,0,0,0,.05.29.25.25,0,0,0,.22.12.23.23,0,0,0,.19-.09.48.48,0,0,0,.08-.29.47.47,0,0,0-.08-.3.25.25,0,0,0-.38,0A.36.36,0,0,0,27.81,41.18Z"/><path className="cls-22" d="M29.46,41.82V41.5h.32v.32Z"/><path className="cls-22" d="M32.73,41.52v.3H31.6a.76.76,0,0,1,.11-.32,2.19,2.19,0,0,1,.36-.41,2.14,2.14,0,0,0,.27-.27.39.39,0,0,0,.06-.2.29.29,0,0,0,0-.17.28.28,0,0,0-.16-.05.24.24,0,0,0-.17.06.28.28,0,0,0-.06.2l-.33,0a.51.51,0,0,1,.18-.38.62.62,0,0,1,.38-.12.57.57,0,0,1,.4.13.46.46,0,0,1,.14.34.71.71,0,0,1,0,.21,1,1,0,0,1-.13.22l-.21.21-.2.19a.47.47,0,0,0-.06.09Z"/><path className="cls-22" d="M34,40.13a.47.47,0,0,1,.38.17,1.49,1.49,0,0,1,0,1.38.47.47,0,0,1-.38.17.47.47,0,0,1-.39-.19,1,1,0,0,1-.16-.67,1.13,1.13,0,0,1,.17-.69A.47.47,0,0,1,34,40.13Zm0,.27a.17.17,0,0,0-.1,0,.23.23,0,0,0-.07.14,1.39,1.39,0,0,0,0,.42,1.88,1.88,0,0,0,0,.41.26.26,0,0,0,.08.14.13.13,0,0,0,.1,0,.15.15,0,0,0,.11,0,.26.26,0,0,0,.07-.13,2,2,0,0,0,0-.42,1.88,1.88,0,0,0,0-.41.35.35,0,0,0-.07-.15A.23.23,0,0,0,34,40.4Z"/><path className="cls-22" d="M36.28,41.52v.3H35.15a.94.94,0,0,1,.11-.32,2.34,2.34,0,0,1,.37-.41,1.84,1.84,0,0,0,.26-.27.32.32,0,0,0,.07-.2.24.24,0,0,0-.06-.17.25.25,0,0,0-.16-.05.21.21,0,0,0-.16.06.34.34,0,0,0-.07.2l-.32,0a.51.51,0,0,1,.18-.38.6.6,0,0,1,.38-.12.53.53,0,0,1,.39.13.42.42,0,0,1,.14.34.49.49,0,0,1,0,.21.74.74,0,0,1-.13.22,1.34,1.34,0,0,1-.21.21l-.19.19-.07.09Z"/><path className="cls-22" d="M37.52,40.13a.47.47,0,0,1,.38.17,1.49,1.49,0,0,1,0,1.38.51.51,0,0,1-.78,0,1.53,1.53,0,0,1,0-1.36A.47.47,0,0,1,37.52,40.13Zm0,.27a.2.2,0,0,0-.11,0,.3.3,0,0,0-.07.14,2,2,0,0,0,0,.42,1.88,1.88,0,0,0,0,.41.26.26,0,0,0,.07.14.15.15,0,0,0,.11,0,.13.13,0,0,0,.1,0,.2.2,0,0,0,.07-.13,1.39,1.39,0,0,0,0-.42,1.88,1.88,0,0,0,0-.41.35.35,0,0,0-.08-.15A.17.17,0,0,0,37.52,40.4Z"/><path className="cls-3" d="M27.42,26.32l.5-.05a.55.55,0,0,0,.19.37.53.53,0,0,0,.37.12.59.59,0,0,0,.38-.1.33.33,0,0,0,.13-.25.2.2,0,0,0-.06-.15.43.43,0,0,0-.18-.12L28.33,26a1.38,1.38,0,0,1-.58-.25.67.67,0,0,1-.13-.88.69.69,0,0,1,.32-.26,1.29,1.29,0,0,1,.51-.09,1.07,1.07,0,0,1,.72.21.73.73,0,0,1,.26.56l-.52,0a.47.47,0,0,0-.14-.29.57.57,0,0,0-.33-.08.58.58,0,0,0-.35.09.17.17,0,0,0-.08.16.18.18,0,0,0,.07.15,1.32,1.32,0,0,0,.48.18,2.29,2.29,0,0,1,.56.18.7.7,0,0,1,.28.26.82.82,0,0,1,0,.82.72.72,0,0,1-.35.29,1.44,1.44,0,0,1-.55.09,1.1,1.1,0,0,1-.75-.22A1,1,0,0,1,27.42,26.32Z"/><path className="cls-3" d="M29.94,27.16V24.59h.83a2.78,2.78,0,0,1,.62,0,.64.64,0,0,1,.36.25.8.8,0,0,1,.15.5,1,1,0,0,1-.08.4.76.76,0,0,1-.22.25.8.8,0,0,1-.27.12,2.46,2.46,0,0,1-.54,0h-.33v1ZM30.46,25v.72h.28a1.27,1.27,0,0,0,.41,0,.33.33,0,0,0,.16-.12.36.36,0,0,0,.06-.2.34.34,0,0,0-.08-.23.45.45,0,0,0-.21-.12h-.62Z"/><path className="cls-3" d="M32.33,24.59h.94a1.93,1.93,0,0,1,.49.05.88.88,0,0,1,.39.24,1.11,1.11,0,0,1,.24.41,1.82,1.82,0,0,1,.09.61,1.71,1.71,0,0,1-.08.54,1.23,1.23,0,0,1-.28.46,1,1,0,0,1-.36.2,1.47,1.47,0,0,1-.46.06h-1Zm.51.44v1.69h.39a1.24,1.24,0,0,0,.31,0,.42.42,0,0,0,.21-.11.54.54,0,0,0,.14-.24,2,2,0,0,0,0-.47,1.78,1.78,0,0,0,0-.46.66.66,0,0,0-.15-.25.46.46,0,0,0-.24-.12,2.08,2.08,0,0,0-.42,0Z"/><path className="cls-3" d="M34.9,27.16V24.59h.52v2.57Z"/></g></g></svg>